<svg xmlns="http://www.w3.org/2000/svg" xmlns:xlink="http://www.w3.org/1999/xlink" width="1080" zoomAndPan="magnify" viewBox="0 0 810 809.999993" height="1080" preserveAspectRatio="xMidYMid meet" version="1.0"><defs><clipPath id="713a33f186"><path d="M 133.21875 67 L 809.960938 67 L 809.960938 635 L 133.21875 635 Z M 133.21875 67 " clip-rule="nonzero"/></clipPath><clipPath id="b9da51ae6a"><path d="M 133.21875 206 L 809.960938 206 L 809.960938 239.480469 L 133.21875 239.480469 Z M 133.21875 206 " clip-rule="nonzero"/></clipPath><clipPath id="b4f55164b4"><path d="M 241 24.804688 L 275 24.804688 L 275 141 L 241 141 Z M 241 24.804688 " clip-rule="nonzero"/></clipPath><clipPath id="d1727a42ae"><path d="M 384 24.804688 L 418 24.804688 L 418 141 L 384 141 Z M 384 24.804688 " clip-rule="nonzero"/></clipPath><clipPath id="a4defc138f"><path d="M 526 24.804688 L 560 24.804688 L 560 141 L 526 141 Z M 526 24.804688 " clip-rule="nonzero"/></clipPath><clipPath id="23d03b3a45"><path d="M 669 24.804688 L 703 24.804688 L 703 141 L 669 141 Z M 669 24.804688 " clip-rule="nonzero"/></clipPath><clipPath id="7c570fb9a2"><path d="M 0.121094 288 L 497 288 L 497 785.1875 L 0.121094 785.1875 Z M 0.121094 288 " clip-rule="nonzero"/></clipPath></defs><g clip-path="url(#713a33f186)"><path fill="#1f1f1f" d="M 166.964844 284.898438 L 166.964844 129.058594 C 166.964844 121.132812 170.21875 113.929688 175.449219 108.6875 C 180.691406 103.457031 187.902344 100.203125 195.820312 100.203125 L 748.140625 100.203125 C 756.058594 100.203125 763.269531 103.457031 768.5 108.6875 C 773.734375 113.929688 776.988281 121.132812 776.988281 129.058594 L 776.988281 573 C 776.988281 580.917969 773.734375 588.128906 768.5 593.371094 C 763.269531 598.605469 756.058594 601.855469 748.140625 601.855469 L 505.15625 601.855469 C 502.320312 613.085938 498.746094 624.105469 494.480469 634.832031 L 748.140625 634.832031 C 765.15625 634.832031 780.621094 627.878906 791.8125 616.683594 C 803.019531 605.480469 809.960938 590.023438 809.960938 573 L 809.960938 129.058594 C 809.960938 112.035156 803.019531 96.570312 791.8125 85.375 C 780.621094 74.183594 765.15625 67.230469 748.140625 67.230469 L 195.820312 67.230469 C 178.796875 67.230469 163.339844 74.183594 152.136719 85.375 C 140.941406 96.570312 133.992188 112.035156 133.992188 129.058594 L 133.992188 298.058594 C 144.675781 292.933594 155.683594 288.539062 166.964844 284.898438 " fill-opacity="1" fill-rule="nonzero"/></g><g clip-path="url(#b9da51ae6a)"><path fill="#1f1f1f" d="M 150.476562 206.164062 C 141.371094 206.164062 133.992188 213.546875 133.992188 222.652344 C 133.992188 231.757812 141.371094 239.136719 150.476562 239.136719 L 793.476562 239.136719 C 802.582031 239.136719 809.960938 231.757812 809.960938 222.652344 C 809.960938 213.546875 802.582031 206.164062 793.476562 206.164062 L 150.476562 206.164062 " fill-opacity="1" fill-rule="nonzero"/></g><g clip-path="url(#b4f55164b4)"><path fill="#1f1f1f" d="M 274.132812 41.292969 C 274.132812 32.1875 266.753906 24.804688 257.648438 24.804688 C 248.542969 24.804688 241.160156 32.1875 241.160156 41.292969 L 241.160156 123.726562 C 241.160156 132.832031 248.542969 140.21875 257.648438 140.21875 C 266.753906 140.21875 274.132812 132.832031 274.132812 123.726562 L 274.132812 41.292969 " fill-opacity="1" fill-rule="nonzero"/></g><g clip-path="url(#d1727a42ae)"><path fill="#1f1f1f" d="M 417.019531 41.292969 C 417.019531 32.1875 409.640625 24.804688 400.535156 24.804688 C 391.425781 24.804688 384.046875 32.1875 384.046875 41.292969 L 384.046875 123.726562 C 384.046875 132.832031 391.425781 140.21875 400.535156 140.21875 C 409.640625 140.21875 417.019531 132.832031 417.019531 123.726562 L 417.019531 41.292969 " fill-opacity="1" fill-rule="nonzero"/></g><g clip-path="url(#a4defc138f)"><path fill="#1f1f1f" d="M 559.90625 41.292969 C 559.90625 32.1875 552.527344 24.804688 543.417969 24.804688 C 534.320312 24.804688 526.933594 32.1875 526.933594 41.292969 L 526.933594 123.726562 C 526.933594 132.832031 534.320312 140.21875 543.417969 140.21875 C 552.527344 140.21875 559.90625 132.832031 559.90625 123.726562 L 559.90625 41.292969 " fill-opacity="1" fill-rule="nonzero"/></g><g clip-path="url(#23d03b3a45)"><path fill="#1f1f1f" d="M 702.800781 41.292969 C 702.800781 32.1875 695.410156 24.804688 686.3125 24.804688 C 677.207031 24.804688 669.828125 32.1875 669.828125 41.292969 L 669.828125 123.726562 C 669.828125 132.832031 677.207031 140.21875 686.3125 140.21875 C 695.410156 140.21875 702.800781 132.832031 702.800781 123.726562 L 702.800781 41.292969 " fill-opacity="1" fill-rule="nonzero"/></g><g clip-path="url(#7c570fb9a2)"><path fill="#1f1f1f" d="M 248.414062 288.605469 C 316.976562 288.605469 379.050781 316.398438 423.980469 361.328125 C 468.910156 406.257812 496.710938 468.332031 496.710938 536.894531 C 496.710938 605.453125 468.910156 667.535156 423.980469 712.464844 C 379.050781 757.398438 316.976562 785.1875 248.414062 785.1875 L 248.414062 752.214844 C 307.878906 752.214844 361.707031 728.113281 400.667969 689.152344 C 439.636719 650.183594 463.738281 596.355469 463.738281 536.894531 C 463.738281 477.4375 439.636719 423.609375 400.667969 384.640625 C 361.707031 345.679688 307.878906 321.578125 248.414062 321.578125 Z M 248.414062 288.605469 L 248.414062 321.578125 C 188.953125 321.578125 135.125 345.679688 96.164062 384.640625 C 57.195312 423.609375 33.09375 477.4375 33.09375 536.894531 C 33.09375 596.355469 57.195312 650.183594 96.164062 689.152344 C 135.125 728.113281 188.953125 752.214844 248.414062 752.214844 L 248.414062 785.1875 C 179.851562 785.1875 117.78125 757.398438 72.84375 712.464844 C 27.910156 667.535156 0.121094 605.453125 0.121094 536.894531 C 0.121094 468.332031 27.910156 406.257812 72.84375 361.328125 C 117.78125 316.398438 179.851562 288.605469 248.414062 288.605469 " fill-opacity="1" fill-rule="nonzero"/></g><path fill="#1f1f1f" d="M 691.496094 271.875 L 724.46875 271.875 C 729.023438 271.875 732.710938 275.566406 732.710938 280.121094 L 732.710938 347.910156 C 732.710938 352.464844 729.023438 356.152344 724.46875 356.152344 L 691.496094 356.152344 L 691.496094 339.667969 L 716.226562 339.667969 L 716.226562 288.363281 L 691.496094 288.363281 Z M 658.523438 271.875 L 691.496094 271.875 L 691.496094 288.363281 L 666.765625 288.363281 L 666.765625 339.667969 L 691.496094 339.667969 L 691.496094 356.152344 L 658.523438 356.152344 C 653.96875 356.152344 650.269531 352.464844 650.269531 347.910156 L 650.269531 280.121094 C 650.269531 275.566406 653.96875 271.875 658.523438 271.875 " fill-opacity="1" fill-rule="nonzero"/><path fill="#1f1f1f" d="M 562.65625 271.875 L 595.628906 271.875 C 600.183594 271.875 603.871094 275.566406 603.871094 280.121094 L 603.871094 347.910156 C 603.871094 352.464844 600.183594 356.152344 595.628906 356.152344 L 562.65625 356.152344 L 562.65625 339.667969 L 587.386719 339.667969 L 587.386719 288.363281 L 562.65625 288.363281 Z M 529.683594 271.875 L 562.65625 271.875 L 562.65625 288.363281 L 537.925781 288.363281 L 537.925781 339.667969 L 562.65625 339.667969 L 562.65625 356.152344 L 529.683594 356.152344 C 525.128906 356.152344 521.441406 352.464844 521.441406 347.910156 L 521.441406 280.121094 C 521.441406 275.566406 525.128906 271.875 529.683594 271.875 " fill-opacity="1" fill-rule="nonzero"/><path fill="#1f1f1f" d="M 691.496094 377.253906 L 724.46875 377.253906 C 729.023438 377.253906 732.710938 380.941406 732.710938 385.496094 L 732.710938 453.285156 C 732.710938 457.839844 729.023438 461.53125 724.46875 461.53125 L 691.496094 461.53125 L 691.496094 445.042969 L 716.226562 445.042969 L 716.226562 393.738281 L 691.496094 393.738281 Z M 658.523438 377.253906 L 691.496094 377.253906 L 691.496094 393.738281 L 666.765625 393.738281 L 666.765625 445.042969 L 691.496094 445.042969 L 691.496094 461.53125 L 658.523438 461.53125 C 653.96875 461.53125 650.269531 457.839844 650.269531 453.285156 L 650.269531 385.496094 C 650.269531 380.941406 653.96875 377.253906 658.523438 377.253906 " fill-opacity="1" fill-rule="nonzero"/><path fill="#1f1f1f" d="M 562.65625 377.253906 L 595.628906 377.253906 C 600.183594 377.253906 603.871094 380.941406 603.871094 385.496094 L 603.871094 453.285156 C 603.871094 457.839844 600.183594 461.53125 595.628906 461.53125 L 562.65625 461.53125 L 562.65625 445.042969 L 587.386719 445.042969 L 587.386719 393.738281 L 562.65625 393.738281 Z M 529.683594 377.253906 L 562.65625 377.253906 L 562.65625 393.738281 L 537.925781 393.738281 L 537.925781 445.042969 L 562.65625 445.042969 L 562.65625 461.53125 L 529.683594 461.53125 C 525.128906 461.53125 521.441406 457.839844 521.441406 453.285156 L 521.441406 385.496094 C 521.441406 380.941406 525.128906 377.253906 529.683594 377.253906 " fill-opacity="1" fill-rule="nonzero"/><path fill="#1f1f1f" d="M 691.496094 482.628906 L 724.46875 482.628906 C 729.023438 482.628906 732.710938 486.316406 732.710938 490.871094 L 732.710938 558.660156 C 732.710938 563.214844 729.023438 566.90625 724.46875 566.90625 L 691.496094 566.90625 L 691.496094 550.417969 L 716.226562 550.417969 L 716.226562 499.113281 L 691.496094 499.113281 Z M 658.523438 482.628906 L 691.496094 482.628906 L 691.496094 499.113281 L 666.765625 499.113281 L 666.765625 550.417969 L 691.496094 550.417969 L 691.496094 566.90625 L 658.523438 566.90625 C 653.96875 566.90625 650.269531 563.214844 650.269531 558.660156 L 650.269531 490.871094 C 650.269531 486.316406 653.96875 482.628906 658.523438 482.628906 " fill-opacity="1" fill-rule="nonzero"/><path fill="#1f1f1f" d="M 562.65625 482.628906 L 595.628906 482.628906 C 600.183594 482.628906 603.871094 486.316406 603.871094 490.871094 L 603.871094 558.660156 C 603.871094 563.214844 600.183594 566.90625 595.628906 566.90625 L 562.65625 566.90625 L 562.65625 550.417969 L 587.386719 550.417969 L 587.386719 499.113281 L 562.65625 499.113281 Z M 529.683594 482.628906 L 562.65625 482.628906 L 562.65625 499.113281 L 537.925781 499.113281 L 537.925781 550.417969 L 562.65625 550.417969 L 562.65625 566.90625 L 529.683594 566.90625 C 525.128906 566.90625 521.441406 563.214844 521.441406 558.660156 L 521.441406 490.871094 C 521.441406 486.316406 525.128906 482.628906 529.683594 482.628906 " fill-opacity="1" fill-rule="nonzero"/><path fill="#1f1f1f" d="M 265.890625 371.039062 C 265.890625 361.929688 258.511719 354.550781 249.40625 354.550781 C 240.296875 354.550781 232.917969 361.929688 232.917969 371.039062 L 232.917969 535.902344 C 232.917969 545.011719 240.296875 552.398438 249.40625 552.398438 C 258.511719 552.398438 265.890625 545.011719 265.890625 535.902344 L 265.890625 371.039062 " fill-opacity="1" fill-rule="nonzero"/><path fill="#1f1f1f" d="M 259.769531 523.15625 C 252.734375 517.429688 242.378906 518.496094 236.648438 525.539062 C 230.921875 532.582031 231.996094 542.929688 239.03125 548.65625 L 328.675781 621.347656 C 335.71875 627.074219 346.066406 626 351.796875 618.964844 C 357.523438 611.921875 356.457031 601.5625 349.414062 595.84375 L 259.769531 523.15625 " fill-opacity="1" fill-rule="nonzero"/></svg>