<svg xmlns="http://www.w3.org/2000/svg" xmlns:xlink="http://www.w3.org/1999/xlink" width="1080" zoomAndPan="magnify" viewBox="0 0 810 809.999993" height="1080" preserveAspectRatio="xMidYMid meet" version="1.0"><defs><clipPath id="30488cbeab"><path d="M 41 162 L 769 162 L 769 672.449219 L 41 672.449219 Z M 41 162 " clip-rule="nonzero"/></clipPath><clipPath id="8131e85a0d"><path d="M 314 563 L 496 563 L 496 672.449219 L 314 672.449219 Z M 314 563 " clip-rule="nonzero"/></clipPath></defs><g clip-path="url(#30488cbeab)"><path fill="#1f1f1f" d="M 738.304688 672.296875 L 71.695312 672.296875 L 67.148438 660.84375 C 64.414062 653.976562 61.890625 647.035156 59.578125 640.019531 C 57.269531 633 55.171875 625.917969 53.292969 618.773438 C 51.414062 611.625 49.753906 604.429688 48.3125 597.183594 C 46.871094 589.9375 45.652344 582.652344 44.65625 575.332031 C 43.65625 568.007812 42.882812 560.664062 42.335938 553.296875 C 41.785156 545.925781 41.460938 538.546875 41.359375 531.160156 C 41.261719 523.773438 41.386719 516.386719 41.738281 509.007812 C 42.085938 501.625 42.664062 494.261719 43.460938 486.917969 C 44.261719 479.570312 45.285156 472.257812 46.527344 464.972656 C 47.773438 457.691406 49.238281 450.453125 50.925781 443.257812 C 52.613281 436.0625 54.515625 428.929688 56.636719 421.851562 C 58.757812 414.773438 61.09375 407.765625 63.640625 400.832031 C 66.1875 393.894531 68.945312 387.042969 71.914062 380.273438 C 74.878906 373.507812 78.046875 366.835938 81.421875 360.261719 C 84.792969 353.6875 88.363281 347.222656 92.128906 340.867188 C 95.894531 334.507812 99.851562 328.273438 104 322.15625 C 108.144531 316.042969 112.476562 310.058594 116.988281 304.207031 C 121.5 298.355469 126.183594 292.644531 131.042969 287.078125 C 135.902344 281.511719 140.925781 276.101562 146.117188 270.839844 C 151.304688 265.578125 156.652344 260.484375 162.152344 255.550781 C 167.652344 250.613281 173.296875 245.851562 179.085938 241.261719 C 184.875 236.671875 190.800781 232.261719 196.859375 228.035156 C 202.917969 223.804688 209.101562 219.765625 215.40625 215.914062 C 221.714844 212.0625 228.128906 208.402344 234.65625 204.941406 C 241.1875 201.480469 247.8125 198.222656 254.539062 195.167969 C 261.269531 192.109375 268.082031 189.261719 274.980469 186.617188 C 281.882812 183.976562 288.859375 181.546875 295.90625 179.332031 C 302.953125 177.113281 310.0625 175.113281 317.234375 173.332031 C 324.40625 171.546875 331.625 169.984375 338.890625 168.640625 C 346.15625 167.300781 353.457031 166.179688 360.789062 165.28125 C 368.125 164.382812 375.476562 163.707031 382.855469 163.257812 C 390.230469 162.808594 397.609375 162.582031 405 162.582031 C 412.390625 162.582031 419.769531 162.808594 427.144531 163.257812 C 434.523438 163.707031 441.875 164.382812 449.210938 165.28125 C 456.542969 166.179688 463.84375 167.300781 471.109375 168.640625 C 478.375 169.984375 485.59375 171.546875 492.765625 173.332031 C 499.9375 175.113281 507.046875 177.113281 514.09375 179.332031 C 521.140625 181.546875 528.117188 183.976562 535.019531 186.617188 C 541.917969 189.261719 548.730469 192.109375 555.460938 195.167969 C 562.1875 198.222656 568.8125 201.480469 575.34375 204.941406 C 581.871094 208.402344 588.285156 212.0625 594.59375 215.914062 C 600.898438 219.765625 607.082031 223.804688 613.140625 228.035156 C 619.199219 232.261719 625.125 236.671875 630.914062 241.261719 C 636.703125 245.851562 642.347656 250.613281 647.847656 255.550781 C 653.347656 260.484375 658.695312 265.582031 663.882812 270.839844 C 669.074219 276.101562 674.097656 281.511719 678.957031 287.078125 C 683.816406 292.644531 688.5 298.355469 693.011719 304.207031 C 697.523438 310.058594 701.855469 316.042969 706 322.15625 C 710.148438 328.273438 714.105469 334.507812 717.871094 340.867188 C 721.636719 347.222656 725.207031 353.6875 728.578125 360.261719 C 731.953125 366.835938 735.121094 373.507812 738.085938 380.273438 C 741.054688 387.042969 743.8125 393.894531 746.359375 400.832031 C 748.90625 407.765625 751.242188 414.773438 753.363281 421.851562 C 755.484375 428.929688 757.386719 436.0625 759.074219 443.257812 C 760.761719 450.453125 762.226562 457.691406 763.472656 464.972656 C 764.714844 472.257812 765.738281 479.570312 766.539062 486.917969 C 767.335938 494.261719 767.910156 501.625 768.261719 509.007812 C 768.613281 516.386719 768.738281 523.773438 768.640625 531.160156 C 768.539062 538.546875 768.214844 545.925781 767.664062 553.296875 C 767.117188 560.664062 766.34375 568.007812 765.34375 575.332031 C 764.347656 582.652344 763.128906 589.9375 761.6875 597.183594 C 760.246094 604.429688 758.585938 611.625 756.707031 618.773438 C 754.828125 625.917969 752.730469 633 750.421875 640.019531 C 748.109375 647.035156 745.585938 653.976562 742.851562 660.84375 Z M 95.878906 635.929688 L 714.121094 635.929688 C 716.066406 630.339844 717.859375 624.699219 719.5 619.011719 C 721.136719 613.324219 722.621094 607.59375 723.949219 601.824219 C 725.28125 596.058594 726.449219 590.257812 727.464844 584.425781 C 728.476562 578.59375 729.332031 572.738281 730.03125 566.859375 C 730.726562 560.980469 731.261719 555.085938 731.636719 549.179688 C 732.015625 543.269531 732.230469 537.355469 732.285156 531.4375 C 732.34375 525.515625 732.238281 519.601562 731.972656 513.6875 C 731.707031 507.773438 731.28125 501.871094 730.695312 495.980469 C 730.109375 490.089844 729.363281 484.21875 728.460938 478.367188 C 727.554688 472.519531 726.492188 466.695312 725.273438 460.902344 C 724.054688 455.109375 722.675781 449.355469 721.144531 443.636719 C 719.613281 437.917969 717.925781 432.246094 716.085938 426.621094 C 714.246094 420.996094 712.253906 415.421875 710.109375 409.902344 C 707.96875 404.386719 705.679688 398.929688 703.238281 393.535156 C 700.800781 388.140625 698.21875 382.816406 695.492188 377.5625 C 692.761719 372.308594 689.894531 367.132812 686.886719 362.035156 C 683.878906 356.933594 680.734375 351.921875 677.453125 346.996094 C 674.171875 342.066406 670.761719 337.230469 667.21875 332.488281 C 663.675781 327.746094 660.007812 323.101562 656.210938 318.558594 C 652.417969 314.015625 648.503906 309.578125 644.46875 305.246094 C 640.433594 300.914062 636.28125 296.695312 632.019531 292.589844 C 627.753906 288.484375 623.382812 284.496094 618.898438 280.628906 C 614.417969 276.761719 609.835938 273.015625 605.152344 269.394531 C 600.46875 265.773438 595.691406 262.285156 590.816406 258.921875 C 585.945312 255.5625 580.984375 252.335938 575.933594 249.246094 C 570.886719 246.152344 565.757812 243.199219 560.550781 240.386719 C 555.339844 237.574219 550.0625 234.902344 544.707031 232.375 C 539.355469 229.851562 533.9375 227.46875 528.453125 225.238281 C 522.972656 223.003906 517.433594 220.921875 511.835938 218.988281 C 506.242188 217.058594 500.597656 215.277344 494.90625 213.652344 C 489.210938 212.023438 483.480469 210.554688 477.707031 209.238281 C 471.9375 207.925781 466.132812 206.765625 460.300781 205.765625 C 454.464844 204.765625 448.605469 203.925781 442.726562 203.242188 C 436.847656 202.558594 430.953125 202.039062 425.042969 201.675781 C 419.132812 201.3125 413.21875 201.109375 407.300781 201.070312 C 401.378906 201.027344 395.464844 201.144531 389.550781 201.425781 C 383.636719 201.703125 377.738281 202.144531 371.847656 202.742188 C 365.957031 203.34375 360.089844 204.101562 354.242188 205.019531 C 348.394531 205.9375 342.574219 207.015625 336.785156 208.246094 C 330.992188 209.480469 325.242188 210.871094 319.527344 212.417969 C 313.8125 213.960938 308.144531 215.664062 302.523438 217.515625 C 296.902344 219.367188 291.332031 221.375 285.820312 223.527344 C 280.304688 225.683594 274.855469 227.988281 269.464844 230.4375 C 264.078125 232.890625 258.761719 235.484375 253.511719 238.226562 C 248.265625 240.964844 243.09375 243.847656 238.003906 246.867188 C 232.914062 249.886719 227.90625 253.042969 222.988281 256.335938 C 218.066406 259.625 213.238281 263.050781 208.503906 266.601562 C 203.769531 270.15625 199.136719 273.835938 194.601562 277.640625 C 190.066406 281.445312 185.636719 285.371094 181.316406 289.417969 C 176.996094 293.464844 172.785156 297.625 168.691406 301.898438 C 164.59375 306.171875 160.617188 310.554688 156.757812 315.042969 C 152.902344 319.53125 149.167969 324.125 145.558594 328.816406 C 141.949219 333.507812 138.46875 338.296875 135.121094 343.175781 C 131.769531 348.058594 128.554688 353.027344 125.476562 358.082031 C 122.394531 363.136719 119.457031 368.273438 116.652344 373.488281 C 113.851562 378.703125 111.195312 383.988281 108.679688 389.347656 C 106.167969 394.707031 103.800781 400.132812 101.578125 405.621094 C 99.359375 411.105469 97.289062 416.652344 95.371094 422.25 C 93.453125 427.851562 91.683594 433.5 90.074219 439.195312 C 88.460938 444.890625 87.003906 450.625 85.699219 456.402344 C 84.398438 462.175781 83.253906 467.980469 82.269531 473.820312 C 81.28125 479.65625 80.453125 485.515625 79.785156 491.398438 C 79.117188 497.28125 78.609375 503.175781 78.261719 509.085938 C 77.910156 514.996094 77.722656 520.910156 77.695312 526.828125 C 77.585938 545.398438 79.058594 563.84375 82.109375 582.160156 C 85.164062 600.476562 89.753906 618.398438 95.878906 635.929688 Z M 95.878906 635.929688 " fill-opacity="1" fill-rule="nonzero"/></g><path fill="#1f1f1f" d="M 677.753906 545.011719 C 677.160156 545.011719 676.5625 544.984375 675.972656 544.925781 C 675.378906 544.867188 674.789062 544.777344 674.207031 544.664062 C 673.621094 544.546875 673.046875 544.402344 672.476562 544.230469 C 671.90625 544.054688 671.34375 543.855469 670.796875 543.628906 C 670.246094 543.398438 669.707031 543.144531 669.183594 542.867188 C 668.65625 542.585938 668.148438 542.277344 667.652344 541.949219 C 667.15625 541.617188 666.679688 541.261719 666.21875 540.886719 C 665.757812 540.507812 665.316406 540.109375 664.894531 539.6875 C 664.476562 539.265625 664.074219 538.824219 663.699219 538.363281 C 663.320312 537.902344 662.964844 537.425781 662.632812 536.929688 C 662.304688 536.4375 661.996094 535.925781 661.71875 535.402344 C 661.4375 534.875 661.183594 534.335938 660.953125 533.789062 C 660.726562 533.238281 660.527344 532.675781 660.351562 532.105469 C 660.179688 531.539062 660.035156 530.960938 659.917969 530.375 C 659.804688 529.792969 659.714844 529.203125 659.65625 528.609375 C 659.597656 528.019531 659.570312 527.425781 659.570312 526.828125 C 659.570312 523.210938 659.492188 519.589844 659.335938 515.972656 C 659.179688 512.359375 658.949219 508.746094 658.640625 505.140625 C 658.332031 501.535156 657.945312 497.933594 657.484375 494.34375 C 657.019531 490.753906 656.480469 487.175781 655.867188 483.609375 C 655.25 480.042969 654.558594 476.488281 653.792969 472.953125 C 653.027344 469.414062 652.183594 465.894531 651.265625 462.394531 C 650.351562 458.890625 649.359375 455.410156 648.292969 451.953125 C 647.226562 448.492188 646.089844 445.058594 644.878906 441.644531 C 643.664062 438.234375 642.382812 434.851562 641.027344 431.496094 C 639.667969 428.140625 638.242188 424.8125 636.742188 421.519531 C 635.246094 418.222656 633.679688 414.960938 632.039062 411.734375 C 630.402344 408.503906 628.699219 405.3125 626.925781 402.15625 C 625.152344 399.003906 623.3125 395.886719 621.40625 392.808594 C 619.5 389.730469 617.527344 386.695312 615.492188 383.703125 C 613.457031 380.710938 611.355469 377.761719 609.195312 374.859375 C 607.035156 371.957031 604.8125 369.097656 602.527344 366.289062 C 600.246094 363.480469 597.902344 360.722656 595.5 358.015625 C 593.101562 355.304688 590.640625 352.648438 588.128906 350.046875 C 585.613281 347.441406 583.042969 344.890625 580.421875 342.398438 C 577.796875 339.902344 575.125 337.464844 572.394531 335.085938 C 569.667969 332.707031 566.890625 330.386719 564.066406 328.121094 C 561.238281 325.859375 558.367188 323.660156 555.445312 321.523438 C 552.527344 319.382812 549.5625 317.304688 546.554688 315.292969 C 543.546875 313.28125 540.496094 311.332031 537.402344 309.449219 C 534.3125 307.566406 531.179688 305.75 528.011719 304.003906 C 524.84375 302.253906 521.636719 300.574219 518.398438 298.960938 C 515.15625 297.347656 511.882812 295.804688 508.578125 294.332031 C 505.269531 292.859375 501.933594 291.457031 498.566406 290.128906 C 495.199219 288.796875 491.808594 287.539062 488.386719 286.355469 C 484.96875 285.167969 481.523438 284.054688 478.054688 283.015625 C 474.589844 281.976562 471.101562 281.011719 467.589844 280.125 C 464.082031 279.234375 460.558594 278.417969 457.011719 277.679688 C 453.46875 276.941406 449.914062 276.277344 446.339844 275.6875 C 442.769531 275.101562 439.1875 274.589844 435.59375 274.152344 C 432 273.71875 428.398438 273.359375 424.789062 273.078125 C 421.179688 272.796875 417.566406 272.59375 413.949219 272.464844 C 410.332031 272.339844 406.714844 272.289062 403.09375 272.316406 C 399.472656 272.34375 395.855469 272.449219 392.242188 272.628906 C 388.625 272.808594 385.015625 273.070312 381.414062 273.402344 C 377.808594 273.738281 374.210938 274.152344 370.625 274.640625 C 367.039062 275.128906 363.464844 275.695312 359.902344 276.335938 C 356.339844 276.976562 352.792969 277.695312 349.261719 278.484375 C 345.730469 279.277344 342.214844 280.144531 338.71875 281.089844 C 335.226562 282.03125 331.753906 283.046875 328.300781 284.136719 C 324.847656 285.230469 321.421875 286.390625 318.019531 287.628906 C 314.617188 288.867188 311.246094 290.175781 307.898438 291.554688 C 304.550781 292.9375 301.238281 294.386719 297.953125 295.910156 C 294.667969 297.433594 291.417969 299.023438 288.203125 300.683594 C 284.984375 302.34375 281.804688 304.074219 278.664062 305.871094 C 275.519531 307.667969 272.417969 309.527344 269.355469 311.457031 C 266.292969 313.386719 263.273438 315.378906 260.292969 317.4375 C 257.316406 319.496094 254.382812 321.613281 251.496094 323.796875 C 248.605469 325.980469 245.765625 328.222656 242.976562 330.527344 C 240.183594 332.832031 237.441406 335.191406 234.75 337.613281 C 232.058594 340.035156 229.421875 342.511719 226.835938 345.046875 C 224.25 347.578125 221.71875 350.164062 219.246094 352.808594 C 216.769531 355.449219 214.351562 358.140625 211.992188 360.886719 C 209.632812 363.628906 207.332031 366.421875 205.089844 369.265625 C 202.847656 372.109375 200.667969 374.996094 198.550781 377.933594 C 196.433594 380.867188 194.378906 383.847656 192.386719 386.871094 C 190.398438 389.894531 188.472656 392.957031 186.613281 396.0625 C 184.75 399.167969 182.957031 402.3125 181.234375 405.496094 C 179.507812 408.675781 177.847656 411.894531 176.261719 415.144531 C 174.671875 418.398438 173.152344 421.683594 171.703125 425 C 168.179688 433 165.082031 441.160156 162.410156 449.480469 C 159.742188 457.804688 157.511719 466.242188 155.722656 474.796875 C 153.9375 483.355469 152.601562 491.980469 151.714844 500.675781 C 150.832031 509.371094 150.402344 518.089844 150.429688 526.828125 C 150.429688 527.425781 150.402344 528.019531 150.34375 528.609375 C 150.285156 529.203125 150.195312 529.792969 150.082031 530.375 C 149.964844 530.960938 149.820312 531.539062 149.648438 532.105469 C 149.472656 532.675781 149.273438 533.238281 149.046875 533.789062 C 148.816406 534.335938 148.5625 534.875 148.28125 535.402344 C 148 535.925781 147.695312 536.4375 147.363281 536.929688 C 147.035156 537.425781 146.679688 537.902344 146.300781 538.363281 C 145.925781 538.824219 145.523438 539.265625 145.105469 539.6875 C 144.683594 540.109375 144.242188 540.507812 143.78125 540.886719 C 143.320312 541.261719 142.84375 541.617188 142.347656 541.949219 C 141.851562 542.277344 141.34375 542.585938 140.816406 542.867188 C 140.292969 543.144531 139.753906 543.398438 139.203125 543.628906 C 138.65625 543.855469 138.09375 544.054688 137.523438 544.230469 C 136.953125 544.402344 136.378906 544.546875 135.792969 544.664062 C 135.210938 544.777344 134.621094 544.867188 134.027344 544.925781 C 133.4375 544.984375 132.839844 545.011719 132.246094 545.011719 C 131.652344 545.011719 131.054688 544.984375 130.464844 544.925781 C 129.871094 544.867188 129.28125 544.777344 128.699219 544.664062 C 128.113281 544.546875 127.539062 544.402344 126.96875 544.230469 C 126.398438 544.054688 125.835938 543.855469 125.289062 543.628906 C 124.738281 543.398438 124.199219 543.144531 123.675781 542.867188 C 123.148438 542.585938 122.640625 542.277344 122.144531 541.949219 C 121.648438 541.617188 121.171875 541.261719 120.710938 540.886719 C 120.25 540.507812 119.808594 540.109375 119.386719 539.6875 C 118.96875 539.265625 118.566406 538.824219 118.191406 538.363281 C 117.8125 537.902344 117.457031 537.425781 117.128906 536.929688 C 116.796875 536.4375 116.492188 535.925781 116.210938 535.402344 C 115.929688 534.875 115.675781 534.335938 115.445312 533.789062 C 115.21875 533.238281 115.019531 532.675781 114.84375 532.105469 C 114.671875 531.539062 114.527344 530.960938 114.410156 530.375 C 114.296875 529.792969 114.207031 529.203125 114.148438 528.609375 C 114.089844 528.019531 114.0625 527.425781 114.0625 526.828125 C 114.042969 516.839844 114.542969 506.875 115.558594 496.9375 C 116.578125 487 118.113281 477.144531 120.160156 467.367188 C 122.207031 457.589844 124.757812 447.945312 127.808594 438.433594 C 130.863281 428.921875 134.402344 419.597656 138.429688 410.453125 C 140.085938 406.664062 141.820312 402.914062 143.640625 399.199219 C 145.457031 395.480469 147.351562 391.808594 149.324219 388.171875 C 151.296875 384.539062 153.347656 380.949219 155.472656 377.402344 C 157.601562 373.855469 159.800781 370.355469 162.078125 366.902344 C 164.355469 363.449219 166.703125 360.046875 169.121094 356.691406 C 171.542969 353.339844 174.035156 350.039062 176.597656 346.792969 C 179.160156 343.546875 181.789062 340.355469 184.484375 337.222656 C 187.183594 334.085938 189.945312 331.011719 192.777344 327.992188 C 195.605469 324.976562 198.496094 322.023438 201.453125 319.128906 C 204.40625 316.234375 207.421875 313.40625 210.496094 310.640625 C 213.574219 307.875 216.707031 305.179688 219.894531 302.546875 C 223.085938 299.917969 226.332031 297.355469 229.632812 294.863281 C 232.933594 292.367188 236.285156 289.949219 239.6875 287.597656 C 243.089844 285.246094 246.542969 282.972656 250.042969 280.769531 C 253.542969 278.566406 257.085938 276.4375 260.679688 274.386719 C 264.269531 272.335938 267.902344 270.363281 271.578125 268.464844 C 275.253906 266.570312 278.964844 264.75 282.71875 263.011719 C 286.472656 261.273438 290.257812 259.617188 294.082031 258.039062 C 297.90625 256.464844 301.761719 254.96875 305.648438 253.558594 C 309.535156 252.144531 313.449219 250.816406 317.394531 249.570312 C 321.335938 248.324219 325.304688 247.164062 329.296875 246.089844 C 333.292969 245.011719 337.304688 244.023438 341.339844 243.117188 C 345.375 242.210938 349.429688 241.394531 353.5 240.664062 C 357.570312 239.929688 361.652344 239.285156 365.75 238.726562 C 369.851562 238.167969 373.957031 237.699219 378.074219 237.316406 C 382.191406 236.933594 386.316406 236.640625 390.449219 236.433594 C 394.578125 236.226562 398.710938 236.105469 402.847656 236.074219 C 406.980469 236.046875 411.117188 236.101562 415.25 236.25 C 419.382812 236.394531 423.511719 236.628906 427.632812 236.949219 C 431.757812 237.269531 435.871094 237.679688 439.976562 238.179688 C 444.082031 238.675781 448.175781 239.257812 452.253906 239.929688 C 456.335938 240.601562 460.402344 241.363281 464.449219 242.207031 C 468.496094 243.050781 472.527344 243.984375 476.535156 245 C 480.542969 246.015625 484.527344 247.117188 488.488281 248.304688 C 492.453125 249.492188 496.386719 250.761719 500.292969 252.117188 C 504.203125 253.472656 508.078125 254.910156 511.925781 256.429688 C 515.769531 257.949219 519.582031 259.550781 523.359375 261.230469 C 527.136719 262.914062 530.878906 264.675781 534.582031 266.519531 C 538.285156 268.359375 541.945312 270.28125 545.566406 272.277344 C 549.1875 274.277344 552.765625 276.351562 556.296875 278.5 C 559.828125 280.652344 563.3125 282.878906 566.75 285.175781 C 570.1875 287.476562 573.574219 289.847656 576.914062 292.292969 C 580.25 294.734375 583.53125 297.25 586.761719 299.832031 C 589.988281 302.414062 593.164062 305.066406 596.277344 307.785156 C 599.394531 310.503906 602.453125 313.289062 605.449219 316.136719 C 608.445312 318.988281 611.382812 321.898438 614.253906 324.875 C 617.128906 327.847656 619.9375 330.882812 622.679688 333.976562 C 625.425781 337.070312 628.101562 340.222656 630.710938 343.429688 C 633.320312 346.640625 635.859375 349.902344 638.328125 353.21875 C 640.800781 356.535156 643.199219 359.902344 645.527344 363.324219 C 647.851562 366.742188 650.105469 370.207031 652.285156 373.722656 C 654.460938 377.238281 656.566406 380.796875 658.59375 384.402344 C 660.621094 388.007812 662.570312 391.65625 664.441406 395.34375 C 666.3125 399.03125 668.105469 402.757812 669.816406 406.519531 C 671.53125 410.285156 673.160156 414.082031 674.710938 417.917969 C 676.261719 421.75 677.730469 425.617188 679.117188 429.511719 C 680.503906 433.410156 681.804688 437.335938 683.023438 441.285156 C 684.242188 445.238281 685.375 449.214844 686.425781 453.214844 C 687.472656 457.214844 688.4375 461.234375 689.3125 465.277344 C 690.191406 469.320312 690.980469 473.378906 691.6875 477.453125 C 692.390625 481.527344 693.007812 485.617188 693.539062 489.71875 C 694.066406 493.820312 694.511719 497.929688 694.867188 502.050781 C 695.21875 506.171875 695.488281 510.296875 695.664062 514.429688 C 695.84375 518.558594 695.933594 522.691406 695.9375 526.828125 C 695.9375 527.425781 695.910156 528.019531 695.851562 528.609375 C 695.792969 529.203125 695.703125 529.792969 695.589844 530.375 C 695.472656 530.960938 695.328125 531.539062 695.15625 532.105469 C 694.980469 532.675781 694.78125 533.238281 694.554688 533.789062 C 694.324219 534.335938 694.070312 534.875 693.789062 535.402344 C 693.507812 535.925781 693.203125 536.4375 692.871094 536.929688 C 692.542969 537.425781 692.1875 537.902344 691.808594 538.363281 C 691.433594 538.824219 691.03125 539.265625 690.613281 539.6875 C 690.191406 540.109375 689.75 540.507812 689.289062 540.886719 C 688.828125 541.261719 688.351562 541.617188 687.855469 541.949219 C 687.359375 542.277344 686.851562 542.585938 686.324219 542.867188 C 685.800781 543.144531 685.261719 543.398438 684.710938 543.628906 C 684.164062 543.855469 683.601562 544.054688 683.03125 544.230469 C 682.460938 544.402344 681.886719 544.546875 681.300781 544.664062 C 680.71875 544.777344 680.128906 544.867188 679.535156 544.925781 C 678.945312 544.984375 678.347656 545.011719 677.753906 545.011719 Z M 677.753906 545.011719 " fill-opacity="1" fill-rule="nonzero"/><g clip-path="url(#8131e85a0d)"><path fill="#1f1f1f" d="M 477.734375 672.296875 C 477.140625 672.296875 476.542969 672.269531 475.953125 672.210938 C 475.359375 672.152344 474.769531 672.0625 474.1875 671.949219 C 473.601562 671.832031 473.027344 671.6875 472.457031 671.515625 C 471.886719 671.339844 471.324219 671.140625 470.777344 670.914062 C 470.226562 670.683594 469.6875 670.429688 469.164062 670.152344 C 468.636719 669.871094 468.128906 669.5625 467.632812 669.234375 C 467.136719 668.902344 466.660156 668.546875 466.199219 668.171875 C 465.738281 667.792969 465.296875 667.394531 464.875 666.972656 C 464.457031 666.550781 464.054688 666.109375 463.679688 665.648438 C 463.300781 665.1875 462.945312 664.710938 462.613281 664.214844 C 462.285156 663.722656 461.976562 663.210938 461.699219 662.6875 C 461.417969 662.160156 461.164062 661.621094 460.933594 661.074219 C 460.707031 660.523438 460.507812 659.960938 460.332031 659.390625 C 460.160156 658.824219 460.015625 658.246094 459.898438 657.660156 C 459.785156 657.078125 459.695312 656.488281 459.636719 655.894531 C 459.578125 655.304688 459.550781 654.710938 459.550781 654.113281 C 459.550781 652.328125 459.464844 650.546875 459.289062 648.765625 C 459.113281 646.988281 458.851562 645.222656 458.503906 643.472656 C 458.152344 641.71875 457.71875 639.988281 457.203125 638.277344 C 456.683594 636.570312 456.082031 634.890625 455.398438 633.238281 C 454.714844 631.585938 453.953125 629.972656 453.109375 628.398438 C 452.265625 626.824219 451.351562 625.292969 450.355469 623.808594 C 449.363281 622.320312 448.300781 620.886719 447.167969 619.507812 C 446.035156 618.125 444.835938 616.804688 443.574219 615.539062 C 442.308594 614.277344 440.988281 613.078125 439.605469 611.945312 C 438.226562 610.8125 436.792969 609.75 435.308594 608.757812 C 433.820312 607.765625 432.289062 606.847656 430.714844 606.003906 C 429.140625 605.164062 427.527344 604.398438 425.875 603.714844 C 424.226562 603.03125 422.542969 602.429688 420.835938 601.914062 C 419.125 601.394531 417.394531 600.960938 415.640625 600.609375 C 413.890625 600.261719 412.125 600 410.347656 599.824219 C 408.570312 599.652344 406.785156 599.5625 405 599.5625 C 403.214844 599.5625 401.429688 599.652344 399.652344 599.824219 C 397.875 600 396.109375 600.261719 394.359375 600.609375 C 392.605469 600.960938 390.875 601.394531 389.164062 601.914062 C 387.453125 602.429688 385.773438 603.03125 384.125 603.714844 C 382.472656 604.398438 380.859375 605.164062 379.285156 606.003906 C 377.710938 606.847656 376.179688 607.765625 374.691406 608.757812 C 373.207031 609.75 371.773438 610.8125 370.394531 611.945312 C 369.011719 613.078125 367.691406 614.277344 366.425781 615.539062 C 365.164062 616.804688 363.964844 618.125 362.832031 619.507812 C 361.699219 620.886719 360.636719 622.320312 359.644531 623.808594 C 358.648438 625.292969 357.734375 626.824219 356.890625 628.398438 C 356.046875 629.972656 355.285156 631.585938 354.601562 633.238281 C 353.917969 634.890625 353.316406 636.570312 352.796875 638.277344 C 352.28125 639.988281 351.847656 641.71875 351.496094 643.472656 C 351.148438 645.222656 350.886719 646.988281 350.710938 648.765625 C 350.535156 650.546875 350.449219 652.328125 350.449219 654.113281 C 350.449219 654.710938 350.421875 655.304688 350.363281 655.894531 C 350.304688 656.488281 350.214844 657.078125 350.101562 657.660156 C 349.984375 658.246094 349.839844 658.824219 349.667969 659.390625 C 349.492188 659.960938 349.292969 660.523438 349.066406 661.074219 C 348.835938 661.621094 348.582031 662.160156 348.300781 662.6875 C 348.019531 663.210938 347.714844 663.722656 347.382812 664.214844 C 347.054688 664.710938 346.699219 665.1875 346.320312 665.648438 C 345.945312 666.109375 345.542969 666.550781 345.125 666.972656 C 344.703125 667.394531 344.261719 667.792969 343.800781 668.171875 C 343.339844 668.546875 342.863281 668.902344 342.367188 669.234375 C 341.871094 669.5625 341.363281 669.871094 340.835938 670.152344 C 340.3125 670.429688 339.773438 670.683594 339.222656 670.914062 C 338.675781 671.140625 338.113281 671.339844 337.542969 671.515625 C 336.972656 671.6875 336.398438 671.832031 335.8125 671.949219 C 335.230469 672.0625 334.640625 672.152344 334.046875 672.210938 C 333.457031 672.269531 332.859375 672.296875 332.265625 672.296875 C 331.671875 672.296875 331.074219 672.269531 330.484375 672.210938 C 329.890625 672.152344 329.300781 672.0625 328.71875 671.949219 C 328.132812 671.832031 327.558594 671.6875 326.988281 671.515625 C 326.417969 671.339844 325.855469 671.140625 325.308594 670.914062 C 324.757812 670.683594 324.21875 670.429688 323.695312 670.152344 C 323.167969 669.871094 322.660156 669.5625 322.164062 669.234375 C 321.667969 668.902344 321.191406 668.546875 320.730469 668.171875 C 320.269531 667.792969 319.828125 667.394531 319.40625 666.972656 C 318.988281 666.550781 318.585938 666.109375 318.210938 665.648438 C 317.832031 665.1875 317.476562 664.710938 317.144531 664.214844 C 316.816406 663.722656 316.511719 663.210938 316.230469 662.6875 C 315.949219 662.160156 315.695312 661.621094 315.464844 661.074219 C 315.238281 660.523438 315.039062 659.960938 314.863281 659.390625 C 314.691406 658.824219 314.546875 658.246094 314.429688 657.660156 C 314.316406 657.078125 314.226562 656.488281 314.167969 655.894531 C 314.109375 655.304688 314.082031 654.710938 314.082031 654.113281 C 314.082031 652.625 314.117188 651.140625 314.191406 649.652344 C 314.265625 648.167969 314.375 646.683594 314.519531 645.203125 C 314.664062 643.722656 314.847656 642.246094 315.066406 640.773438 C 315.285156 639.300781 315.539062 637.835938 315.828125 636.375 C 316.121094 634.917969 316.445312 633.464844 316.808594 632.023438 C 317.167969 630.578125 317.566406 629.144531 317.996094 627.722656 C 318.429688 626.296875 318.894531 624.886719 319.398438 623.484375 C 319.898438 622.082031 320.433594 620.695312 321.003906 619.320312 C 321.570312 617.945312 322.175781 616.585938 322.8125 615.242188 C 323.445312 613.894531 324.117188 612.566406 324.816406 611.253906 C 325.519531 609.941406 326.253906 608.648438 327.015625 607.371094 C 327.78125 606.097656 328.578125 604.839844 329.40625 603.601562 C 330.230469 602.367188 331.085938 601.148438 331.972656 599.953125 C 332.859375 598.757812 333.777344 597.585938 334.71875 596.4375 C 335.664062 595.285156 336.636719 594.160156 337.632812 593.058594 C 338.632812 591.953125 339.660156 590.878906 340.710938 589.824219 C 341.761719 588.773438 342.839844 587.746094 343.941406 586.75 C 345.046875 585.75 346.171875 584.777344 347.320312 583.832031 C 348.472656 582.890625 349.644531 581.972656 350.839844 581.085938 C 352.035156 580.203125 353.25 579.34375 354.488281 578.519531 C 355.726562 577.691406 356.984375 576.894531 358.257812 576.132812 C 359.535156 575.367188 360.828125 574.632812 362.140625 573.929688 C 363.453125 573.230469 364.78125 572.5625 366.128906 571.925781 C 367.472656 571.289062 368.832031 570.6875 370.207031 570.117188 C 371.582031 569.546875 372.96875 569.011719 374.371094 568.511719 C 375.773438 568.007812 377.183594 567.542969 378.609375 567.109375 C 380.03125 566.679688 381.464844 566.28125 382.910156 565.921875 C 384.351562 565.558594 385.804688 565.234375 387.261719 564.941406 C 388.722656 564.652344 390.1875 564.398438 391.660156 564.179688 C 393.132812 563.960938 394.609375 563.78125 396.089844 563.632812 C 397.570312 563.488281 399.050781 563.378906 400.539062 563.304688 C 402.023438 563.234375 403.511719 563.195312 405 563.195312 C 406.488281 563.195312 407.976562 563.234375 409.460938 563.304688 C 410.945312 563.378906 412.429688 563.488281 413.910156 563.632812 C 415.390625 563.78125 416.867188 563.960938 418.339844 564.179688 C 419.8125 564.398438 421.277344 564.652344 422.738281 564.941406 C 424.195312 565.234375 425.648438 565.558594 427.089844 565.921875 C 428.535156 566.28125 429.96875 566.679688 431.390625 567.109375 C 432.816406 567.542969 434.226562 568.007812 435.628906 568.511719 C 437.03125 569.011719 438.417969 569.546875 439.792969 570.117188 C 441.167969 570.6875 442.527344 571.289062 443.871094 571.925781 C 445.21875 572.5625 446.546875 573.230469 447.859375 573.929688 C 449.171875 574.632812 450.464844 575.367188 451.742188 576.132812 C 453.015625 576.894531 454.273438 577.691406 455.511719 578.519531 C 456.75 579.34375 457.964844 580.203125 459.160156 581.085938 C 460.355469 581.972656 461.527344 582.890625 462.675781 583.832031 C 463.828125 584.777344 464.953125 585.75 466.058594 586.75 C 467.160156 587.746094 468.238281 588.773438 469.289062 589.824219 C 470.339844 590.878906 471.367188 591.953125 472.367188 593.058594 C 473.363281 594.160156 474.335938 595.285156 475.28125 596.4375 C 476.222656 597.585938 477.140625 598.757812 478.027344 599.953125 C 478.914062 601.148438 479.769531 602.367188 480.59375 603.601562 C 481.421875 604.839844 482.21875 606.097656 482.984375 607.371094 C 483.746094 608.648438 484.480469 609.941406 485.183594 611.253906 C 485.882812 612.566406 486.550781 613.894531 487.1875 615.242188 C 487.824219 616.585938 488.425781 617.945312 488.996094 619.320312 C 489.566406 620.695312 490.101562 622.082031 490.601562 623.484375 C 491.105469 624.886719 491.570312 626.296875 492.003906 627.722656 C 492.433594 629.144531 492.832031 630.578125 493.191406 632.023438 C 493.554688 633.464844 493.878906 634.917969 494.171875 636.375 C 494.460938 637.835938 494.714844 639.300781 494.933594 640.773438 C 495.152344 642.246094 495.335938 643.722656 495.480469 645.203125 C 495.625 646.683594 495.734375 648.167969 495.808594 649.652344 C 495.882812 651.140625 495.917969 652.625 495.917969 654.113281 C 495.917969 654.710938 495.890625 655.304688 495.832031 655.894531 C 495.773438 656.488281 495.683594 657.078125 495.570312 657.660156 C 495.453125 658.246094 495.308594 658.824219 495.136719 659.390625 C 494.960938 659.960938 494.761719 660.523438 494.535156 661.074219 C 494.304688 661.621094 494.050781 662.160156 493.769531 662.6875 C 493.488281 663.210938 493.183594 663.722656 492.851562 664.214844 C 492.523438 664.710938 492.167969 665.1875 491.789062 665.648438 C 491.414062 666.109375 491.011719 666.550781 490.59375 666.972656 C 490.171875 667.394531 489.730469 667.792969 489.269531 668.171875 C 488.808594 668.546875 488.332031 668.902344 487.835938 669.234375 C 487.339844 669.5625 486.832031 669.871094 486.304688 670.152344 C 485.78125 670.429688 485.242188 670.683594 484.691406 670.914062 C 484.144531 671.140625 483.582031 671.339844 483.011719 671.515625 C 482.441406 671.6875 481.867188 671.832031 481.28125 671.949219 C 480.699219 672.0625 480.109375 672.152344 479.515625 672.210938 C 478.925781 672.269531 478.328125 672.296875 477.734375 672.296875 Z M 477.734375 672.296875 " fill-opacity="1" fill-rule="nonzero"/></g><path fill="#1f1f1f" d="M 455.914062 599.5625 C 453.863281 599.550781 451.871094 599.203125 449.9375 598.515625 C 448.007812 597.832031 446.238281 596.847656 444.640625 595.5625 C 444.175781 595.191406 443.734375 594.800781 443.308594 594.386719 C 442.886719 593.972656 442.480469 593.539062 442.101562 593.085938 C 441.71875 592.632812 441.359375 592.160156 441.023438 591.671875 C 440.6875 591.183594 440.375 590.679688 440.089844 590.160156 C 439.800781 589.644531 439.542969 589.109375 439.308594 588.566406 C 439.074219 588.023438 438.867188 587.46875 438.683594 586.902344 C 438.503906 586.339844 438.351562 585.765625 438.226562 585.1875 C 438.101562 584.605469 438.007812 584.023438 437.941406 583.433594 C 437.871094 582.84375 437.835938 582.253906 437.824219 581.660156 C 437.816406 581.070312 437.835938 580.476562 437.882812 579.886719 C 437.929688 579.296875 438.007812 578.707031 438.113281 578.125 C 438.21875 577.542969 438.355469 576.964844 438.515625 576.394531 C 438.679688 575.824219 438.867188 575.261719 439.085938 574.710938 C 439.300781 574.160156 439.546875 573.621094 439.816406 573.09375 C 440.085938 572.566406 440.378906 572.050781 440.699219 571.550781 C 441.019531 571.054688 441.363281 570.570312 441.730469 570.105469 L 558.105469 424.636719 C 558.476562 424.164062 558.871094 423.714844 559.289062 423.28125 C 559.703125 422.847656 560.140625 422.4375 560.597656 422.046875 C 561.054688 421.65625 561.53125 421.292969 562.023438 420.949219 C 562.515625 420.605469 563.023438 420.289062 563.546875 419.996094 C 564.070312 419.703125 564.609375 419.433594 565.160156 419.195312 C 565.710938 418.957031 566.269531 418.742188 566.839844 418.558594 C 567.414062 418.371094 567.992188 418.214844 568.578125 418.089844 C 569.164062 417.960938 569.757812 417.859375 570.351562 417.789062 C 570.949219 417.722656 571.546875 417.679688 572.148438 417.667969 C 572.746094 417.660156 573.347656 417.675781 573.945312 417.722656 C 574.542969 417.773438 575.136719 417.847656 575.730469 417.957031 C 576.320312 418.0625 576.90625 418.195312 577.480469 418.359375 C 578.058594 418.523438 578.628906 418.714844 579.1875 418.9375 C 579.746094 419.15625 580.292969 419.402344 580.828125 419.675781 C 581.359375 419.949219 581.882812 420.25 582.386719 420.574219 C 582.890625 420.898438 583.378906 421.246094 583.851562 421.617188 C 584.320312 421.992188 584.773438 422.386719 585.203125 422.800781 C 585.636719 423.21875 586.046875 423.65625 586.4375 424.113281 C 586.824219 424.570312 587.191406 425.046875 587.535156 425.539062 C 587.875 426.03125 588.191406 426.542969 588.484375 427.066406 C 588.777344 427.589844 589.042969 428.128906 589.28125 428.679688 C 589.523438 429.230469 589.734375 429.789062 589.917969 430.363281 C 590.101562 430.933594 590.257812 431.511719 590.386719 432.097656 C 590.511719 432.683594 590.613281 433.277344 590.679688 433.875 C 590.75 434.46875 590.789062 435.066406 590.800781 435.667969 C 590.808594 436.269531 590.792969 436.867188 590.742188 437.464844 C 590.695312 438.066406 590.617188 438.660156 590.507812 439.25 C 590.402344 439.839844 590.265625 440.425781 590.101562 441.003906 C 589.9375 441.582031 589.746094 442.148438 589.523438 442.707031 C 589.304688 443.265625 589.054688 443.8125 588.78125 444.34375 C 588.507812 444.878906 588.207031 445.398438 587.882812 445.902344 C 587.558594 446.410156 587.210938 446.894531 586.835938 447.367188 L 470.460938 592.835938 C 469.585938 593.914062 468.601562 594.878906 467.503906 595.734375 C 466.40625 596.585938 465.230469 597.304688 463.96875 597.886719 C 462.707031 598.472656 461.398438 598.90625 460.039062 599.1875 C 458.675781 599.46875 457.304688 599.59375 455.914062 599.5625 Z M 455.914062 599.5625 " fill-opacity="1" fill-rule="nonzero"/></svg>