<svg xmlns="http://www.w3.org/2000/svg" xmlns:xlink="http://www.w3.org/1999/xlink" width="1080" zoomAndPan="magnify" viewBox="0 0 810 809.999993" height="1080" preserveAspectRatio="xMidYMid meet" version="1.0"><defs><clipPath id="d660696201"><path d="M 0.800781 0 L 807.800781 0 L 807.800781 810 L 0.800781 810 Z M 0.800781 0 " clip-rule="nonzero"/></clipPath></defs><g clip-path="url(#d660696201)"><path fill="#616161" d="M 411.804688 -2.117188 C 183.640625 -2.117188 -1.316406 182.84375 -1.316406 411.003906 C -1.316406 639.164062 183.640625 824.125 411.804688 824.125 C 639.964844 824.125 824.925781 639.164062 824.925781 411.003906 C 824.925781 182.84375 639.964844 -2.117188 411.804688 -2.117188 Z M 411.804688 -2.117188 " fill-opacity="1" fill-rule="evenodd"/></g><path fill="#f0f3f9" d="M 411.804688 167.367188 C 324.050781 167.367188 252.910156 238.503906 252.910156 326.261719 C 252.910156 414.015625 324.050781 485.152344 411.804688 485.152344 C 499.558594 485.152344 570.695312 414.015625 570.695312 326.261719 C 570.695312 238.503906 499.558594 167.367188 411.804688 167.367188 Z M 411.804688 167.367188 " fill-opacity="1" fill-rule="evenodd"/><path fill="#f0f3f9" d="M 703.207031 703.835938 L 696.277344 691.769531 L 696.230469 691.691406 C 639.5 593.617188 533.386719 527.523438 411.804688 527.523438 C 297.871094 527.523438 197.507812 585.574219 138.664062 673.5625 C 134.710938 679.472656 130.945312 685.519531 127.375 691.691406 L 127.328125 691.769531 L 120.394531 703.835938 C 195.097656 778.175781 298.085938 824.125 411.804688 824.125 C 525.519531 824.125 628.507812 778.175781 703.207031 703.835938 Z M 703.207031 703.835938 " fill-opacity="1" fill-rule="evenodd"/></svg>