<svg xmlns="http://www.w3.org/2000/svg" xmlns:xlink="http://www.w3.org/1999/xlink" width="1080" zoomAndPan="magnify" viewBox="0 0 810 809.999993" height="1080" preserveAspectRatio="xMidYMid meet" version="1.0"><defs><clipPath id="ba24a08d9a"><path d="M 213 437 L 597 437 L 597 683.8125 L 213 683.8125 Z M 213 437 " clip-rule="nonzero"/></clipPath></defs><path fill="#ffffff" d="M 369.207031 584.054688 C 369.207031 584.898438 369.164062 585.742188 369.082031 586.578125 C 369 587.417969 368.875 588.253906 368.710938 589.082031 C 368.546875 589.90625 368.34375 590.726562 368.097656 591.53125 C 367.851562 592.339844 367.566406 593.132812 367.246094 593.910156 C 366.921875 594.691406 366.5625 595.453125 366.164062 596.195312 C 365.765625 596.941406 365.332031 597.664062 364.863281 598.363281 C 364.394531 599.066406 363.894531 599.742188 363.359375 600.394531 C 362.824219 601.046875 362.257812 601.671875 361.660156 602.269531 C 361.066406 602.863281 360.441406 603.429688 359.789062 603.964844 C 359.136719 604.5 358.460938 605.003906 357.757812 605.472656 C 357.058594 605.941406 356.335938 606.375 355.589844 606.769531 C 354.847656 607.167969 354.085938 607.527344 353.304688 607.851562 C 352.527344 608.175781 351.734375 608.457031 350.925781 608.703125 C 350.117188 608.949219 349.300781 609.152344 348.472656 609.316406 C 347.644531 609.480469 346.8125 609.605469 345.972656 609.6875 C 345.132812 609.769531 344.292969 609.8125 343.449219 609.8125 C 342.605469 609.8125 341.761719 609.769531 340.925781 609.6875 C 340.085938 609.605469 339.25 609.480469 338.421875 609.316406 C 337.597656 609.152344 336.777344 608.949219 335.972656 608.703125 C 335.164062 608.457031 334.371094 608.175781 333.589844 607.851562 C 332.8125 607.527344 332.050781 607.167969 331.304688 606.769531 C 330.5625 606.375 329.839844 605.941406 329.136719 605.472656 C 328.4375 605.003906 327.761719 604.5 327.109375 603.964844 C 326.457031 603.429688 325.832031 602.863281 325.234375 602.269531 C 324.640625 601.671875 324.074219 601.046875 323.539062 600.394531 C 323.003906 599.742188 322.5 599.066406 322.03125 598.363281 C 321.5625 597.664062 321.128906 596.941406 320.730469 596.195312 C 320.335938 595.453125 319.972656 594.691406 319.652344 593.910156 C 319.328125 593.132812 319.046875 592.339844 318.800781 591.53125 C 318.554688 590.726562 318.351562 589.90625 318.1875 589.082031 C 318.019531 588.253906 317.898438 587.417969 317.816406 586.578125 C 317.730469 585.742188 317.691406 584.898438 317.691406 584.054688 C 317.691406 583.210938 317.730469 582.371094 317.816406 581.53125 C 317.898438 580.691406 318.019531 579.859375 318.1875 579.03125 C 318.351562 578.203125 318.554688 577.386719 318.800781 576.578125 C 319.046875 575.769531 319.328125 574.976562 319.652344 574.199219 C 319.972656 573.417969 320.335938 572.65625 320.730469 571.914062 C 321.128906 571.167969 321.5625 570.445312 322.03125 569.746094 C 322.5 569.042969 323.003906 568.367188 323.539062 567.714844 C 324.074219 567.0625 324.640625 566.4375 325.234375 565.839844 C 325.832031 565.246094 326.457031 564.679688 327.109375 564.144531 C 327.761719 563.609375 328.4375 563.105469 329.136719 562.636719 C 329.839844 562.167969 330.5625 561.738281 331.304688 561.339844 C 332.050781 560.941406 332.8125 560.582031 333.589844 560.257812 C 334.371094 559.933594 335.164062 559.652344 335.972656 559.40625 C 336.777344 559.160156 337.597656 558.957031 338.421875 558.792969 C 339.25 558.628906 340.085938 558.503906 340.925781 558.421875 C 341.761719 558.339844 342.605469 558.296875 343.449219 558.296875 C 344.292969 558.296875 345.132812 558.339844 345.972656 558.421875 C 346.8125 558.503906 347.644531 558.628906 348.472656 558.792969 C 349.300781 558.957031 350.117188 559.160156 350.925781 559.40625 C 351.734375 559.652344 352.527344 559.933594 353.304688 560.257812 C 354.085938 560.582031 354.847656 560.941406 355.589844 561.339844 C 356.335938 561.738281 357.058594 562.167969 357.757812 562.636719 C 358.460938 563.105469 359.136719 563.609375 359.789062 564.144531 C 360.441406 564.679688 361.066406 565.246094 361.660156 565.839844 C 362.257812 566.4375 362.824219 567.0625 363.359375 567.714844 C 363.894531 568.367188 364.394531 569.042969 364.863281 569.746094 C 365.332031 570.445312 365.765625 571.167969 366.164062 571.914062 C 366.5625 572.65625 366.921875 573.417969 367.246094 574.199219 C 367.566406 574.976562 367.851562 575.769531 368.097656 576.578125 C 368.34375 577.386719 368.546875 578.203125 368.710938 579.03125 C 368.875 579.859375 369 580.691406 369.082031 581.53125 C 369.164062 582.371094 369.207031 583.210938 369.207031 584.054688 Z M 369.207031 584.054688 " fill-opacity="1" fill-rule="nonzero"/><path fill="#ffffff" d="M 506.367188 280.277344 L 508.808594 266.847656 C 514.058594 230.707031 513.996094 187 485.609375 173.261719 C 481.398438 164.777344 469.679688 145.363281 446.664062 135.109375 C 433.964844 129.738281 419.988281 127.90625 404.96875 129.554688 C 381.589844 126.929688 360.710938 133.09375 344.414062 147.257812 C 333.425781 156.78125 327.074219 167.585938 324.207031 173.324219 C 319.996094 175.460938 316.148438 178.511719 312.730469 182.417969 C 301.863281 195.484375 299.664062 212.941406 298.566406 229.425781 C 297.53125 244.746094 302.902344 278.261719 302.902344 278.261719 L 303.390625 280.277344 C 295.148438 284.488281 291.058594 294.011719 293.5625 302.984375 L 296.917969 314.949219 C 299.238281 323.558594 305.585938 326.976562 312.242188 330.578125 L 314.378906 331.921875 C 324.695312 372.636719 360.527344 411.707031 405.03125 411.707031 C 449.347656 411.707031 485.246094 372.636719 495.5625 332.101562 L 497.699219 330.761719 C 504.472656 327.21875 510.699219 323.738281 513.140625 315.195312 L 516.5 303.167969 C 519.003906 294.132812 514.789062 284.488281 506.367188 280.277344 Z M 501.847656 299.140625 L 498.550781 311.105469 C 498.246094 312.140625 491.835938 316.292969 486.585938 319.527344 C 482.742188 321.96875 479.871094 325.695312 478.589844 330.089844 C 469.1875 362.871094 439.886719 394.796875 405.03125 394.796875 C 370.113281 394.796875 340.871094 362.992188 331.472656 330.148438 C 330.128906 325.632812 327.136719 321.785156 323.046875 319.34375 C 318.039062 316.355469 311.996094 312.507812 311.449219 310.859375 L 308.027344 298.894531 C 307.480469 296.757812 308.457031 294.621094 310.472656 293.644531 L 315.414062 291.140625 C 318.46875 289.617188 320.117188 286.074219 319.382812 282.71875 L 317.429688 273.742188 C 360.710938 269.777344 422.671875 242.246094 442.269531 228.082031 C 446.175781 225.394531 448.679688 223.136719 448.617188 221.609375 C 448.617188 221.550781 448.738281 221.550781 448.738281 221.609375 C 450.816406 226.1875 471.019531 269.652344 493.484375 266.355469 L 490.554688 283.265625 C 489.945312 286.5625 491.59375 289.800781 494.585938 291.386719 L 499.589844 293.890625 C 501.480469 294.804688 502.519531 297.003906 501.847656 299.140625 Z M 501.847656 299.140625 " fill-opacity="1" fill-rule="nonzero"/><g clip-path="url(#ba24a08d9a)"><path fill="#ffffff" d="M 560.453125 683.726562 L 249.546875 683.726562 C 228.242188 683.726562 211.578125 665.289062 213.773438 644.105469 L 227.082031 513.164062 C 227.816406 505.839844 231.296875 499 236.726562 493.996094 L 250.339844 481.664062 C 253.394531 513.101562 265.785156 546.066406 296.734375 567.066406 C 294.84375 572.378906 293.683594 578.117188 293.683594 584.039062 C 293.683594 611.507812 316.027344 633.789062 343.433594 633.789062 C 370.90625 633.789062 393.1875 611.507812 393.1875 584.039062 C 393.1875 556.628906 370.90625 534.285156 343.433594 534.285156 C 330.675781 534.285156 319.015625 539.230469 310.164062 547.167969 C 278.179688 525.554688 272.5 488.441406 273.597656 460.542969 L 285.074219 450.105469 C 290.570312 445.097656 297.773438 442.289062 305.222656 442.289062 L 348.808594 442.289062 L 390.195312 476.046875 L 395.996094 449.617188 L 385.3125 449.617188 C 382.078125 449.617188 379.511719 447.050781 379.511719 443.816406 C 379.511719 440.582031 382.078125 437.957031 385.3125 437.957031 L 424.6875 437.957031 C 427.863281 437.957031 430.488281 440.582031 430.488281 443.816406 C 430.488281 447.050781 427.863281 449.617188 424.6875 449.617188 L 414.003906 449.617188 L 419.804688 476.046875 L 461.191406 442.289062 L 504.777344 442.289062 C 512.226562 442.289062 519.429688 445.097656 524.925781 450.105469 L 529.929688 454.621094 C 528.769531 478.855469 519.1875 509.5 483.046875 528.242188 L 467.296875 535.078125 C 462.902344 536.972656 460.03125 541.304688 460.03125 546.066406 L 460.03125 565.542969 C 447.703125 570.363281 438.972656 582.328125 438.972656 596.308594 L 438.972656 625.367188 L 461.375 625.367188 L 461.375 609.800781 L 456.917969 609.800781 L 456.917969 596.308594 C 456.917969 588.007812 463.695312 581.230469 472.058594 581.230469 C 480.359375 581.230469 487.136719 588.007812 487.136719 596.308594 L 487.136719 609.800781 L 482.742188 609.800781 L 482.742188 625.367188 L 505.144531 625.367188 L 505.144531 596.308594 C 505.144531 582.328125 496.355469 570.363281 484.023438 565.542969 L 484.023438 553.941406 L 492.996094 550.097656 C 493.242188 549.976562 493.484375 549.851562 493.730469 549.730469 C 529.5625 531.292969 545.742188 502.238281 551.417969 474.15625 L 573.273438 493.996094 C 578.765625 499 582.183594 505.839844 582.917969 513.164062 L 596.285156 644.105469 C 598.421875 665.289062 581.816406 683.726562 560.453125 683.726562 Z M 560.453125 683.726562 " fill-opacity="1" fill-rule="nonzero"/></g><path fill="#ffffff" d="M 737.789062 335.15625 L 739.683594 324.59375 C 743.832031 296.332031 743.773438 262.023438 721.492188 251.277344 C 718.195312 244.625 709.035156 229.425781 691.027344 221.367188 C 681.015625 217.15625 670.089844 215.75 658.308594 217.03125 C 639.996094 214.957031 623.632812 219.78125 610.875 230.890625 C 602.269531 238.398438 597.324219 246.824219 595.066406 251.339844 C 591.707031 252.988281 588.714844 255.371094 586.03125 258.484375 C 577.484375 268.675781 575.773438 282.351562 574.980469 295.292969 C 574.125 307.257812 578.339844 333.570312 578.339844 333.570312 L 578.703125 335.09375 C 572.234375 338.453125 569.058594 345.898438 571.011719 352.917969 L 573.636719 362.320312 C 575.46875 369.035156 580.414062 371.722656 585.664062 374.53125 L 587.3125 375.628906 C 595.429688 407.496094 623.453125 438.140625 658.371094 438.140625 C 693.105469 438.140625 721.246094 407.496094 729.363281 375.75 L 731.011719 374.714844 C 736.324219 371.90625 741.207031 369.21875 743.101562 362.503906 L 745.726562 353.101562 C 747.679688 345.960938 744.382812 338.453125 737.789062 335.15625 Z M 734.25 349.929688 L 731.683594 359.269531 C 731.441406 360.125 726.375 363.359375 722.285156 365.921875 C 719.230469 367.816406 717.035156 370.683594 715.996094 374.164062 C 708.671875 399.863281 685.71875 424.894531 658.371094 424.894531 C 631.019531 424.894531 608.066406 399.984375 600.742188 374.222656 C 599.703125 370.683594 597.324219 367.691406 594.148438 365.738281 C 590.242188 363.417969 585.480469 360.367188 585.054688 359.148438 L 582.367188 349.746094 C 581.941406 348.097656 582.734375 346.386719 584.261719 345.59375 L 588.105469 343.640625 C 590.546875 342.421875 591.828125 339.671875 591.28125 337.046875 L 589.691406 330.027344 C 623.632812 326.914062 672.226562 305.304688 687.609375 294.195312 C 690.601562 292.117188 692.554688 290.347656 692.554688 289.128906 L 692.617188 289.128906 C 694.265625 292.789062 710.074219 326.792969 727.65625 324.226562 L 725.398438 337.476562 C 724.910156 340.101562 726.191406 342.601562 728.570312 343.824219 L 732.480469 345.777344 C 733.945312 346.511719 734.738281 348.21875 734.25 349.929688 Z M 734.25 349.929688 " fill-opacity="1" fill-rule="nonzero"/><path fill="#ffffff" d="M 808.234375 620.238281 C 809.945312 636.902344 796.882812 651.308594 780.214844 651.308594 L 612.097656 651.308594 C 612.28125 648.378906 612.28125 645.449219 611.976562 642.519531 L 598.605469 511.578125 C 597.507812 500.34375 592.257812 489.96875 583.894531 482.335938 L 566.496094 466.523438 C 570.464844 463.65625 575.226562 462.128906 580.171875 462.128906 L 614.292969 462.128906 L 646.769531 488.5625 L 650.25 467.867188 L 642.925781 467.867188 C 640.421875 467.867188 638.40625 465.792969 638.40625 463.289062 C 638.40625 460.789062 640.421875 458.710938 642.925781 458.710938 L 673.753906 458.710938 C 676.316406 458.710938 678.332031 460.789062 678.332031 463.289062 C 678.332031 465.792969 676.316406 467.867188 673.753906 467.867188 L 666.488281 467.867188 L 669.96875 488.5625 L 702.382812 462.128906 L 736.570312 462.128906 C 742.367188 462.128906 748.046875 464.265625 752.316406 468.234375 L 756.226562 471.777344 C 755.371094 490.761719 747.863281 514.75 719.535156 529.464844 L 707.144531 534.835938 C 703.726562 536.300781 701.46875 539.71875 701.46875 543.441406 L 701.46875 558.703125 C 691.820312 562.429688 684.984375 571.828125 684.984375 582.816406 L 684.984375 607.355469 L 702.75 607.355469 L 702.75 594.597656 L 699.023438 594.597656 L 699.023438 582.816406 C 699.023438 576.285156 704.398438 570.972656 710.867188 570.972656 C 717.398438 570.972656 722.710938 576.285156 722.710938 582.816406 L 722.710938 594.597656 L 719.046875 594.597656 L 719.046875 607.355469 L 736.8125 607.355469 L 736.8125 582.816406 C 736.8125 571.828125 729.976562 562.429688 720.269531 558.703125 L 720.269531 549.609375 L 727.289062 546.617188 C 727.472656 546.496094 727.65625 546.433594 727.839844 546.3125 C 755.980469 531.84375 768.617188 509.074219 773.074219 487.097656 L 790.226562 502.664062 C 794.5 506.511719 797.1875 511.882812 797.796875 517.621094 Z M 808.234375 620.238281 " fill-opacity="1" fill-rule="nonzero"/><path fill="#ffffff" d="M 231.113281 335.15625 L 233.003906 324.59375 C 237.09375 296.332031 237.09375 262.023438 214.8125 251.277344 C 211.515625 244.625 202.359375 229.425781 184.289062 221.367188 C 174.339844 217.15625 163.351562 215.75 151.628906 217.03125 C 133.316406 214.957031 116.957031 219.78125 104.136719 230.890625 C 95.589844 238.398438 90.585938 246.824219 88.328125 251.339844 C 85.03125 252.988281 82.039062 255.371094 79.351562 258.484375 C 70.804688 268.675781 69.097656 282.351562 68.242188 295.292969 C 67.449219 307.257812 71.660156 333.570312 71.660156 333.570312 L 72.027344 335.09375 C 65.558594 338.453125 62.320312 345.898438 64.273438 352.917969 L 66.898438 362.320312 C 68.730469 369.035156 73.738281 371.722656 78.988281 374.53125 L 80.636719 375.628906 C 88.753906 407.496094 116.773438 438.140625 151.691406 438.140625 C 186.425781 438.140625 214.507812 407.496094 222.625 375.75 L 224.335938 374.714844 C 229.585938 371.90625 234.46875 369.21875 236.421875 362.503906 L 239.046875 353.101562 C 241 345.960938 237.703125 338.453125 231.113281 335.15625 Z M 227.570312 349.929688 L 225.007812 359.269531 C 224.703125 360.125 219.695312 363.359375 215.605469 365.921875 C 212.554688 367.816406 210.296875 370.683594 209.320312 374.164062 C 201.992188 399.863281 178.980469 424.894531 151.691406 424.894531 C 124.34375 424.894531 101.390625 399.984375 94.003906 374.222656 C 92.964844 370.683594 90.644531 367.691406 87.410156 365.738281 C 83.503906 363.417969 78.742188 360.367188 78.375 359.148438 L 75.691406 349.746094 C 75.203125 348.097656 75.996094 346.386719 77.582031 345.59375 L 81.429688 343.640625 C 83.871094 342.421875 85.152344 339.671875 84.542969 337.046875 L 83.015625 330.027344 C 116.957031 326.914062 165.488281 305.304688 180.871094 294.195312 C 183.925781 292.117188 185.878906 290.347656 185.816406 289.128906 C 185.816406 289.066406 185.9375 289.066406 185.9375 289.128906 C 187.527344 292.789062 203.398438 326.792969 220.976562 324.226562 L 218.660156 337.476562 C 218.230469 340.101562 219.511719 342.601562 221.832031 343.824219 L 225.800781 345.777344 C 227.265625 346.511719 228.058594 348.21875 227.570312 349.929688 Z M 227.570312 349.929688 " fill-opacity="1" fill-rule="nonzero"/><path fill="#ffffff" d="M 123.597656 573.203125 C 123.597656 573.863281 123.566406 574.523438 123.5 575.179688 C 123.4375 575.835938 123.339844 576.492188 123.210938 577.140625 C 123.082031 577.789062 122.921875 578.429688 122.726562 579.0625 C 122.535156 579.695312 122.3125 580.316406 122.0625 580.925781 C 121.808594 581.535156 121.527344 582.132812 121.214844 582.714844 C 120.902344 583.300781 120.5625 583.867188 120.195312 584.414062 C 119.828125 584.964844 119.433594 585.496094 119.015625 586.007812 C 118.597656 586.519531 118.152344 587.007812 117.683594 587.476562 C 117.21875 587.941406 116.730469 588.386719 116.21875 588.804688 C 115.707031 589.222656 115.175781 589.617188 114.625 589.984375 C 114.078125 590.351562 113.511719 590.691406 112.925781 591.003906 C 112.34375 591.316406 111.746094 591.597656 111.136719 591.851562 C 110.527344 592.101562 109.902344 592.324219 109.273438 592.519531 C 108.640625 592.710938 108 592.871094 107.351562 593 C 106.703125 593.128906 106.046875 593.226562 105.390625 593.289062 C 104.734375 593.355469 104.074219 593.386719 103.414062 593.386719 C 102.75 593.386719 102.089844 593.355469 101.433594 593.289062 C 100.777344 593.226562 100.121094 593.128906 99.472656 593 C 98.824219 592.871094 98.183594 592.710938 97.550781 592.519531 C 96.921875 592.324219 96.296875 592.101562 95.6875 591.851562 C 95.078125 591.597656 94.480469 591.316406 93.898438 591.003906 C 93.3125 590.691406 92.746094 590.351562 92.199219 589.984375 C 91.648438 589.617188 91.117188 589.222656 90.605469 588.804688 C 90.09375 588.386719 89.605469 587.941406 89.140625 587.476562 C 88.671875 587.007812 88.226562 586.519531 87.808594 586.007812 C 87.390625 585.496094 86.996094 584.964844 86.628906 584.414062 C 86.261719 583.867188 85.921875 583.300781 85.609375 582.714844 C 85.296875 582.132812 85.015625 581.535156 84.761719 580.925781 C 84.511719 580.316406 84.289062 579.695312 84.097656 579.0625 C 83.902344 578.429688 83.742188 577.789062 83.613281 577.140625 C 83.484375 576.492188 83.386719 575.835938 83.324219 575.179688 C 83.257812 574.523438 83.226562 573.863281 83.226562 573.203125 C 83.226562 572.539062 83.257812 571.878906 83.324219 571.222656 C 83.386719 570.566406 83.484375 569.910156 83.613281 569.261719 C 83.742188 568.613281 83.902344 567.972656 84.097656 567.339844 C 84.289062 566.710938 84.511719 566.085938 84.761719 565.476562 C 85.015625 564.867188 85.296875 564.269531 85.609375 563.6875 C 85.921875 563.101562 86.261719 562.535156 86.628906 561.988281 C 86.996094 561.4375 87.390625 560.90625 87.808594 560.394531 C 88.226562 559.886719 88.671875 559.394531 89.140625 558.929688 C 89.605469 558.460938 90.09375 558.015625 90.605469 557.597656 C 91.117188 557.179688 91.648438 556.785156 92.199219 556.417969 C 92.746094 556.050781 93.3125 555.710938 93.898438 555.398438 C 94.480469 555.085938 95.078125 554.804688 95.6875 554.550781 C 96.296875 554.300781 96.921875 554.078125 97.550781 553.886719 C 98.183594 553.691406 98.824219 553.53125 99.472656 553.402344 C 100.121094 553.273438 100.777344 553.179688 101.433594 553.113281 C 102.089844 553.046875 102.75 553.015625 103.414062 553.015625 C 104.074219 553.015625 104.734375 553.046875 105.390625 553.113281 C 106.046875 553.179688 106.703125 553.273438 107.351562 553.402344 C 108 553.53125 108.640625 553.691406 109.273438 553.886719 C 109.902344 554.078125 110.527344 554.300781 111.136719 554.550781 C 111.746094 554.804688 112.34375 555.085938 112.925781 555.398438 C 113.511719 555.710938 114.078125 556.050781 114.625 556.417969 C 115.175781 556.785156 115.707031 557.179688 116.21875 557.597656 C 116.730469 558.015625 117.21875 558.460938 117.683594 558.929688 C 118.152344 559.394531 118.597656 559.886719 119.015625 560.394531 C 119.433594 560.90625 119.828125 561.4375 120.195312 561.988281 C 120.5625 562.535156 120.902344 563.101562 121.214844 563.6875 C 121.527344 564.269531 121.808594 564.867188 122.0625 565.476562 C 122.3125 566.085938 122.535156 566.710938 122.726562 567.339844 C 122.921875 567.972656 123.082031 568.613281 123.210938 569.261719 C 123.339844 569.910156 123.4375 570.566406 123.5 571.222656 C 123.566406 571.878906 123.597656 572.539062 123.597656 573.203125 Z M 123.597656 573.203125 " fill-opacity="1" fill-rule="nonzero"/><path fill="#ffffff" d="M 229.828125 462.128906 L 195.707031 462.128906 L 163.289062 488.5625 L 159.730469 467.867188 L 166.402344 467.867188 C 168.90625 467.867188 170.980469 465.792969 170.980469 463.289062 C 170.980469 460.789062 168.90625 458.710938 166.402344 458.710938 L 136.917969 458.710938 C 134.414062 458.710938 132.339844 460.789062 132.339844 463.289062 C 132.339844 465.792969 134.414062 467.867188 136.917969 467.867188 L 143.59375 467.867188 L 140.03125 488.5625 L 107.617188 462.128906 L 73.492188 462.128906 C 67.632812 462.128906 62.015625 464.265625 57.679688 468.234375 L 48.648438 476.414062 C 47.851562 498.269531 52.25 527.328125 77.339844 544.296875 C 84.238281 538.070312 93.394531 534.226562 103.40625 534.226562 C 124.894531 534.226562 142.414062 551.683594 142.414062 573.171875 C 142.414062 594.722656 124.894531 612.179688 103.40625 612.179688 C 81.917969 612.179688 64.457031 594.722656 64.457031 573.171875 C 64.457031 568.53125 65.3125 564.078125 66.839844 559.925781 C 42.542969 543.441406 32.835938 517.621094 30.457031 492.957031 L 19.773438 502.664062 C 15.5 506.511719 12.8125 511.882812 12.203125 517.621094 L 1.765625 620.238281 C 0.0546875 636.902344 13.117188 651.308594 29.84375 651.308594 L 197.902344 651.308594 C 197.71875 648.378906 197.78125 645.449219 198.027344 642.519531 L 209.441406 530.929688 L 211.394531 511.578125 C 212.554688 500.34375 217.742188 489.96875 226.105469 482.335938 L 243.503906 466.523438 C 239.535156 463.65625 234.773438 462.128906 229.828125 462.128906 Z M 229.828125 462.128906 " fill-opacity="1" fill-rule="nonzero"/></svg>