<svg xmlns="http://www.w3.org/2000/svg" xmlns:xlink="http://www.w3.org/1999/xlink" width="1080" zoomAndPan="magnify" viewBox="0 0 810 809.999993" height="1080" preserveAspectRatio="xMidYMid meet" version="1.0"><path fill="#616161" d="M 689.4375 809.988281 L 333.953125 809.988281 C 323.882812 809.988281 315.714844 801.824219 315.714844 791.75 C 315.714844 781.675781 323.882812 773.511719 333.953125 773.511719 L 689.441406 773.511719 C 699.511719 773.511719 707.679688 781.675781 707.679688 791.75 C 707.679688 801.816406 699.507812 809.988281 689.4375 809.988281 Z M 689.4375 809.988281 " fill-opacity="1" fill-rule="nonzero"/><path fill="#616161" d="M 663.871094 94.5625 L 534.34375 3.855469 C 530.375 1.082031 525.476562 -0.00390625 520.710938 0.835938 C 515.949219 1.671875 511.710938 4.375 508.933594 8.332031 L 417.371094 139.09375 L 576.792969 250.71875 L 668.359375 119.957031 C 674.132812 111.707031 672.125 100.332031 663.871094 94.5625 Z M 663.871094 94.5625 " fill-opacity="1" fill-rule="nonzero"/><path fill="#616161" d="M 396.460938 168.96875 L 86.304688 611.921875 C 76.738281 625.578125 71.429688 641.453125 70.945312 657.828125 L 67.28125 782.164062 C 67.101562 788.300781 70.015625 794.117188 75.050781 797.636719 C 78.164062 799.816406 81.828125 800.9375 85.511719 800.9375 C 87.792969 800.9375 90.082031 800.519531 92.25 799.648438 L 207.828125 753.675781 C 223.058594 747.621094 236.164062 737.195312 245.71875 723.542969 L 555.875 280.601562 Z M 396.460938 168.96875 " fill-opacity="1" fill-rule="nonzero"/></svg>