<svg xmlns="http://www.w3.org/2000/svg" xmlns:xlink="http://www.w3.org/1999/xlink" width="1080" zoomAndPan="magnify" viewBox="0 0 810 809.999993" height="1080" preserveAspectRatio="xMidYMid meet" version="1.0"><defs><clipPath id="cd3f9bd673"><path d="M 54.167969 89 L 513 89 L 513 810 L 54.167969 810 Z M 54.167969 89 " clip-rule="nonzero"/></clipPath></defs><path fill="#1f1f1f" d="M 325.921875 65.789062 L 383.992188 29.144531 C 384.992188 28.511719 385.941406 28.304688 386.78125 28.304688 C 388.046875 28.304688 389.097656 28.777344 389.46875 28.988281 C 390.414062 29.515625 391.519531 30.460938 391.519531 32.039062 L 391.519531 105.429688 C 391.519531 107.007812 390.414062 107.957031 389.46875 108.484375 C 388.785156 108.851562 386.414062 109.90625 383.992188 108.324219 L 325.921875 71.632812 C 324.449219 70.734375 324.132812 69.523438 324.132812 68.734375 C 324.132812 67.945312 324.449219 66.734375 325.921875 65.789062 Z M 311.550781 94.425781 L 369.566406 131.121094 C 374.832031 134.4375 380.835938 136.125 386.835938 136.125 C 392.207031 136.125 397.628906 134.753906 402.472656 132.070312 C 412.476562 126.542969 418.476562 116.589844 418.476562 105.429688 L 418.476562 82.582031 C 590.632812 89.636719 728.460938 231.835938 728.460938 405.675781 C 728.460938 530.078125 659.019531 641.371094 547.300781 696.230469 C 540.617188 699.496094 537.878906 707.550781 541.144531 714.234375 C 543.511719 719.027344 548.304688 721.816406 553.25 721.816406 C 555.253906 721.816406 557.253906 721.34375 559.199219 720.449219 C 680.234375 661.011719 755.414062 540.398438 755.414062 405.675781 C 755.414062 216.988281 605.476562 62.734375 418.476562 55.625 L 418.476562 32.039062 C 418.476562 20.878906 412.476562 10.929688 402.472656 5.402344 C 392.101562 -0.335938 379.519531 0.0859375 369.566406 6.347656 L 311.550781 43.042969 C 302.546875 48.730469 297.179688 58.3125 297.179688 68.734375 C 297.179688 79.160156 302.546875 88.742188 311.550781 94.425781 " fill-opacity="1" fill-rule="nonzero"/><path fill="#1f1f1f" d="M 229.789062 526.972656 C 214.945312 526.972656 202.835938 514.863281 202.835938 500.015625 L 202.835938 257.421875 C 202.835938 242.574219 214.945312 230.464844 229.789062 230.464844 L 580.207031 230.464844 C 595.054688 230.464844 607.160156 242.574219 607.160156 257.421875 L 607.160156 500.015625 C 607.160156 514.863281 595.054688 526.972656 580.207031 526.972656 L 391.363281 526.972656 C 381.730469 526.972656 372.410156 530.445312 365.039062 536.710938 L 297.179688 593.832031 L 297.179688 553.925781 C 297.179688 539.082031 285.070312 526.972656 270.222656 526.972656 Z M 286.121094 618.734375 C 289.914062 620.472656 293.863281 621.316406 297.757812 621.316406 C 304.128906 621.316406 310.394531 619.101562 315.5 614.734375 L 382.625 557.191406 C 385.046875 555.085938 388.203125 553.925781 391.363281 553.925781 L 580.207031 553.925781 C 609.953125 553.925781 634.117188 529.761719 634.117188 500.015625 L 634.117188 257.421875 C 634.117188 227.726562 609.953125 203.511719 580.207031 203.511719 L 229.789062 203.511719 C 200.046875 203.511719 175.878906 227.726562 175.878906 257.421875 L 175.878906 500.015625 C 175.878906 529.761719 200.046875 553.925781 229.789062 553.925781 L 270.222656 553.925781 L 270.222656 593.832031 C 270.222656 604.679688 276.332031 614.207031 286.121094 618.734375 " fill-opacity="1" fill-rule="nonzero"/><path fill="#1f1f1f" d="M 270.222656 311.332031 L 539.773438 311.332031 C 547.199219 311.332031 553.25 305.277344 553.25 297.855469 C 553.25 290.429688 547.199219 284.375 539.773438 284.375 L 270.222656 284.375 C 262.800781 284.375 256.746094 290.429688 256.746094 297.855469 C 256.746094 305.277344 262.800781 311.332031 270.222656 311.332031 " fill-opacity="1" fill-rule="nonzero"/><path fill="#1f1f1f" d="M 270.222656 378.71875 L 539.773438 378.71875 C 547.199219 378.71875 553.25 372.664062 553.25 365.242188 C 553.25 357.816406 547.199219 351.765625 539.773438 351.765625 L 270.222656 351.765625 C 262.800781 351.765625 256.746094 357.816406 256.746094 365.242188 C 256.746094 372.664062 262.800781 378.71875 270.222656 378.71875 " fill-opacity="1" fill-rule="nonzero"/><path fill="#1f1f1f" d="M 418.476562 446.105469 C 425.898438 446.105469 431.953125 440.050781 431.953125 432.628906 C 431.953125 425.207031 425.898438 419.152344 418.476562 419.152344 L 270.222656 419.152344 C 262.800781 419.152344 256.746094 425.207031 256.746094 432.628906 C 256.746094 440.050781 262.800781 446.105469 270.222656 446.105469 L 418.476562 446.105469 " fill-opacity="1" fill-rule="nonzero"/><g clip-path="url(#cd3f9bd673)"><path fill="#1f1f1f" d="M 418.476562 705.96875 C 418.476562 704.339844 419.582031 703.390625 420.53125 702.863281 C 420.898438 702.652344 421.949219 702.179688 423.214844 702.179688 C 424.058594 702.179688 425.003906 702.390625 426.003906 703.023438 L 484.074219 739.664062 C 485.546875 740.613281 485.863281 741.769531 485.863281 742.613281 C 485.863281 743.453125 485.546875 744.613281 484.074219 745.5625 L 426.003906 782.203125 C 423.53125 783.78125 421.160156 782.730469 420.53125 782.359375 C 419.582031 781.835938 418.476562 780.886719 418.476562 779.253906 Z M 391.519531 755.773438 L 391.519531 779.253906 C 391.519531 790.46875 397.523438 800.472656 407.527344 805.945312 C 412.371094 808.632812 417.792969 810 423.160156 810 C 429.164062 810 435.164062 808.316406 440.429688 805 L 498.445312 768.304688 C 507.449219 762.617188 512.820312 753.035156 512.820312 742.613281 C 512.820312 732.1875 507.449219 722.605469 498.445312 716.921875 L 440.429688 680.226562 C 430.480469 673.960938 417.84375 673.59375 407.527344 679.277344 C 397.523438 684.753906 391.519531 694.757812 391.519531 705.96875 L 391.519531 728.820312 C 219.367188 721.710938 81.539062 579.511719 81.539062 405.675781 C 81.539062 281.269531 150.980469 169.976562 262.695312 115.117188 C 269.382812 111.851562 272.117188 103.746094 268.855469 97.058594 C 265.589844 90.425781 257.535156 87.636719 250.796875 90.898438 C 129.761719 150.335938 54.582031 270.949219 54.582031 405.675781 C 54.582031 594.410156 204.519531 748.613281 391.519531 755.773438 " fill-opacity="1" fill-rule="nonzero"/></g></svg>