<svg xmlns="http://www.w3.org/2000/svg" xmlns:xlink="http://www.w3.org/1999/xlink" width="1080" zoomAndPan="magnify" viewBox="0 0 810 809.999993" height="1080" preserveAspectRatio="xMidYMid meet" version="1.0"><defs><clipPath id="42dfa41d96"><path d="M 0 50.117188 L 810 50.117188 L 810 759.617188 L 0 759.617188 Z M 0 50.117188 " clip-rule="nonzero"/></clipPath></defs><g clip-path="url(#42dfa41d96)"><path fill="#ffffff" d="M 782.632812 585.855469 L 600.863281 585.855469 C 583.910156 542.007812 551.84375 504.699219 509.554688 482.304688 C 545.925781 451.71875 567.066406 407.152344 567.066406 359.023438 C 567.066406 291.351562 525.339844 233.304688 466.28125 209.085938 C 468.019531 136.3125 527.480469 77.585938 600.65625 77.585938 C 674.925781 77.585938 735.355469 138 735.355469 212.273438 C 735.355469 259.058594 711.277344 301.816406 670.921875 326.65625 C 666.453125 329.394531 663.972656 334.417969 664.457031 339.617188 C 664.960938 344.800781 668.355469 349.261719 673.25 351.113281 C 738.671875 375.800781 782.632812 439.261719 782.632812 509.015625 Z M 586.976562 732.59375 L 223.023438 732.59375 L 223.023438 655.753906 C 223.023438 586.003906 266.992188 522.539062 332.414062 497.847656 C 337.300781 496.003906 340.695312 491.539062 341.207031 486.351562 C 341.683594 481.160156 339.199219 476.128906 334.742188 473.390625 C 294.386719 448.550781 270.300781 405.792969 270.300781 359.023438 C 270.300781 284.75 330.726562 224.335938 405 224.335938 C 479.273438 224.335938 539.699219 284.75 539.699219 359.023438 C 539.699219 405.792969 515.613281 448.550781 475.257812 473.390625 C 470.800781 476.128906 468.316406 481.160156 468.792969 486.351562 C 469.304688 491.539062 472.699219 496.003906 477.585938 497.847656 C 543.007812 522.539062 586.976562 586.003906 586.976562 655.753906 Z M 209.136719 585.855469 L 27.367188 585.855469 L 27.367188 509.015625 C 27.367188 439.261719 71.328125 375.800781 136.75 351.113281 C 141.644531 349.261719 145.039062 344.800781 145.542969 339.617188 C 146.027344 334.417969 143.546875 329.394531 139.078125 326.65625 C 98.722656 301.816406 74.644531 259.058594 74.644531 212.273438 C 74.644531 138 135.074219 77.585938 209.34375 77.585938 C 282.519531 77.585938 341.980469 136.3125 343.71875 209.085938 C 284.660156 233.304688 242.933594 291.351562 242.933594 359.023438 C 242.933594 407.152344 264.074219 451.71875 300.445312 482.304688 C 258.15625 504.699219 226.089844 542.007812 209.136719 585.855469 Z M 705.207031 335.570312 C 741.578125 304.980469 762.722656 260.402344 762.722656 212.273438 C 762.722656 122.914062 690.027344 50.21875 600.65625 50.21875 C 515.207031 50.21875 445.167969 116.722656 439.179688 200.667969 C 428.152344 198.292969 416.730469 196.96875 405 196.96875 C 393.269531 196.96875 381.847656 198.292969 370.820312 200.667969 C 364.832031 116.722656 294.792969 50.21875 209.34375 50.21875 C 119.972656 50.21875 47.277344 122.914062 47.277344 212.273438 C 47.277344 260.402344 68.421875 304.980469 104.792969 335.570312 C 41.261719 369.203125 -0.00390625 436.152344 -0.00390625 509.015625 L -0.00390625 599.535156 C -0.00390625 607.105469 6.121094 613.222656 13.683594 613.222656 L 200.851562 613.222656 C 197.722656 627.0625 195.660156 641.226562 195.660156 655.753906 L 195.660156 746.269531 C 195.660156 753.839844 201.777344 759.957031 209.34375 759.957031 L 600.65625 759.957031 C 608.222656 759.957031 614.339844 753.839844 614.339844 746.269531 L 614.339844 655.753906 C 614.339844 641.226562 612.277344 627.0625 609.148438 613.222656 L 796.316406 613.222656 C 803.878906 613.222656 809.996094 607.105469 809.996094 599.535156 L 809.996094 509.015625 C 809.996094 436.152344 768.738281 369.203125 705.207031 335.570312 " fill-opacity="1" fill-rule="nonzero"/></g></svg>