<svg xmlns="http://www.w3.org/2000/svg" xmlns:xlink="http://www.w3.org/1999/xlink" width="1080" zoomAndPan="magnify" viewBox="0 0 810 809.999993" height="1080" preserveAspectRatio="xMidYMid meet" version="1.0"><defs><clipPath id="19223b0da7"><path d="M 4.105469 405 L 539 405 L 539 672.039062 L 4.105469 672.039062 Z M 4.105469 405 " clip-rule="nonzero"/></clipPath><clipPath id="f53b49c8fc"><path d="M 121 138.039062 L 422 138.039062 L 422 439 L 121 439 Z M 121 138.039062 " clip-rule="nonzero"/></clipPath></defs><path fill="#1f1f1f" d="M 538.609375 371.796875 L 805.894531 371.796875 L 805.894531 405.253906 L 538.609375 405.253906 L 538.609375 371.796875 " fill-opacity="1" fill-rule="nonzero"/><path fill="#1f1f1f" d="M 538.609375 238.191406 L 805.894531 238.191406 L 805.894531 271.574219 L 538.609375 271.574219 L 538.609375 238.191406 " fill-opacity="1" fill-rule="nonzero"/><path fill="#1f1f1f" d="M 605.445312 505.476562 L 805.894531 505.476562 L 805.894531 538.859375 L 605.445312 538.859375 L 605.445312 505.476562 " fill-opacity="1" fill-rule="nonzero"/><g clip-path="url(#19223b0da7)"><path fill="#1f1f1f" d="M 38.203125 639.082031 L 504.582031 639.082031 C 495.402344 527.117188 394.25 438.636719 271.390625 438.636719 C 148.53125 438.636719 47.382812 527.117188 38.203125 639.082031 Z M 521.949219 672.46875 L 20.832031 672.46875 L 4.105469 655.8125 C 4.105469 517.648438 123.976562 405.253906 271.390625 405.253906 C 418.738281 405.253906 538.679688 517.648438 538.679688 655.8125 L 521.949219 672.46875 " fill-opacity="1" fill-rule="nonzero"/></g><g clip-path="url(#f53b49c8fc)"><path fill="#1f1f1f" d="M 271.390625 171.351562 C 206.902344 171.351562 154.441406 223.8125 154.441406 288.300781 C 154.441406 352.792969 206.902344 405.253906 271.390625 405.253906 C 335.882812 405.253906 388.273438 352.792969 388.273438 288.300781 C 388.273438 223.8125 335.882812 171.351562 271.390625 171.351562 Z M 271.390625 438.636719 C 188.464844 438.636719 121.058594 371.15625 121.058594 288.300781 C 121.058594 205.445312 188.464844 137.964844 271.390625 137.964844 C 354.246094 137.964844 421.726562 205.445312 421.726562 288.300781 C 421.726562 371.15625 354.246094 438.636719 271.390625 438.636719 " fill-opacity="1" fill-rule="nonzero"/></g></svg>