<svg xmlns="http://www.w3.org/2000/svg" xmlns:xlink="http://www.w3.org/1999/xlink" width="1080" zoomAndPan="magnify" viewBox="0 0 810 809.999993" height="1080" preserveAspectRatio="xMidYMid meet" version="1.0"><defs><clipPath id="3c87ce835b"><path d="M 57.710938 0 L 752.210938 0 L 752.210938 810 L 57.710938 810 Z M 57.710938 0 " clip-rule="nonzero"/></clipPath></defs><g clip-path="url(#3c87ce835b)"><path fill="#1f1f1f" d="M 737.675781 0 L 188.035156 0 C 187.082031 0 186.144531 0.09375 185.210938 0.277344 C 184.28125 0.464844 183.375 0.738281 182.5 1.101562 C 181.621094 1.464844 180.785156 1.910156 179.996094 2.4375 C 179.207031 2.964844 178.476562 3.566406 177.804688 4.238281 C 177.132812 4.90625 176.535156 5.640625 176.007812 6.429688 C 175.480469 7.21875 175.035156 8.050781 174.671875 8.929688 C 174.308594 9.804688 174.03125 10.710938 173.847656 11.640625 C 173.660156 12.574219 173.570312 13.515625 173.570312 14.464844 L 173.570312 115.714844 L 72.320312 115.714844 C 71.371094 115.714844 70.429688 115.808594 69.496094 115.992188 C 68.566406 116.175781 67.660156 116.453125 66.785156 116.816406 C 65.90625 117.179688 65.074219 117.625 64.28125 118.152344 C 63.492188 118.679688 62.761719 119.277344 62.089844 119.949219 C 61.417969 120.621094 60.820312 121.351562 60.292969 122.144531 C 59.765625 122.933594 59.320312 123.765625 58.957031 124.644531 C 58.59375 125.519531 58.316406 126.425781 58.132812 127.355469 C 57.949219 128.289062 57.855469 129.230469 57.855469 130.179688 L 57.855469 795.535156 C 57.855469 796.484375 57.949219 797.425781 58.132812 798.359375 C 58.316406 799.289062 58.59375 800.195312 58.957031 801.070312 C 59.320312 801.949219 59.765625 802.78125 60.292969 803.570312 C 60.820312 804.359375 61.417969 805.09375 62.089844 805.761719 C 62.761719 806.433594 63.492188 807.035156 64.28125 807.5625 C 65.074219 808.089844 65.90625 808.535156 66.785156 808.898438 C 67.660156 809.261719 68.566406 809.535156 69.496094 809.722656 C 70.429688 809.90625 71.371094 810 72.320312 810 L 607.496094 810 C 608.449219 810 609.386719 809.90625 610.320312 809.722656 C 611.25 809.535156 612.15625 809.261719 613.03125 808.898438 C 613.910156 808.535156 614.742188 808.089844 615.535156 807.5625 C 616.324219 807.035156 617.054688 806.433594 617.726562 805.761719 C 618.398438 805.09375 618.996094 804.359375 619.523438 803.570312 C 620.050781 802.78125 620.496094 801.949219 620.859375 801.070312 C 621.222656 800.195312 621.5 799.289062 621.683594 798.359375 C 621.871094 797.425781 621.960938 796.484375 621.960938 795.535156 L 621.960938 694.285156 L 737.675781 694.285156 C 738.625 694.285156 739.566406 694.191406 740.496094 694.007812 C 741.429688 693.824219 742.332031 693.546875 743.210938 693.183594 C 744.089844 692.820312 744.921875 692.375 745.710938 691.847656 C 746.5 691.320312 747.230469 690.722656 747.902344 690.050781 C 748.574219 689.378906 749.175781 688.648438 749.703125 687.855469 C 750.230469 687.066406 750.675781 686.234375 751.039062 685.355469 C 751.402344 684.480469 751.675781 683.574219 751.863281 682.644531 C 752.046875 681.710938 752.140625 680.769531 752.140625 679.820312 L 752.140625 14.464844 C 752.140625 13.515625 752.046875 12.574219 751.863281 11.640625 C 751.675781 10.710938 751.402344 9.804688 751.039062 8.929688 C 750.675781 8.050781 750.230469 7.21875 749.703125 6.429688 C 749.175781 5.640625 748.574219 4.90625 747.902344 4.238281 C 747.230469 3.566406 746.5 2.964844 745.710938 2.4375 C 744.921875 1.910156 744.089844 1.464844 743.210938 1.101562 C 742.332031 0.738281 741.429688 0.464844 740.496094 0.277344 C 739.566406 0.09375 738.625 0 737.675781 0 Z M 593.035156 781.070312 L 86.785156 781.070312 L 86.785156 144.644531 L 173.570312 144.644531 L 173.570312 679.820312 C 173.570312 680.769531 173.660156 681.710938 173.847656 682.644531 C 174.03125 683.574219 174.308594 684.480469 174.671875 685.355469 C 175.035156 686.234375 175.480469 687.066406 176.007812 687.855469 C 176.535156 688.648438 177.132812 689.378906 177.804688 690.050781 C 178.476562 690.722656 179.207031 691.320312 179.996094 691.847656 C 180.785156 692.375 181.621094 692.820312 182.5 693.183594 C 183.375 693.546875 184.28125 693.824219 185.210938 694.007812 C 186.144531 694.191406 187.082031 694.285156 188.035156 694.285156 L 593.035156 694.285156 Z M 723.210938 665.355469 L 202.496094 665.355469 L 202.496094 28.929688 L 723.210938 28.929688 Z M 723.210938 665.355469 " fill-opacity="1" fill-rule="nonzero"/></g><path fill="#1f1f1f" d="M 274.820312 433.929688 L 650.890625 433.929688 C 651.839844 433.929688 652.78125 433.835938 653.710938 433.652344 C 654.644531 433.464844 655.546875 433.191406 656.425781 432.828125 C 657.304688 432.464844 658.136719 432.019531 658.925781 431.492188 C 659.714844 430.964844 660.445312 430.363281 661.117188 429.691406 C 661.789062 429.019531 662.390625 428.289062 662.917969 427.5 C 663.445312 426.710938 663.890625 425.878906 664.253906 425 C 664.617188 424.121094 664.890625 423.21875 665.078125 422.285156 C 665.261719 421.355469 665.355469 420.414062 665.355469 419.464844 C 665.355469 418.515625 665.261719 417.574219 665.078125 416.640625 C 664.890625 415.710938 664.617188 414.804688 664.253906 413.929688 C 663.890625 413.050781 663.445312 412.21875 662.917969 411.429688 C 662.390625 410.636719 661.789062 409.90625 661.117188 409.238281 C 660.445312 408.566406 659.714844 407.964844 658.925781 407.4375 C 658.136719 406.910156 657.304688 406.464844 656.425781 406.101562 C 655.546875 405.738281 654.644531 405.464844 653.710938 405.277344 C 652.78125 405.09375 651.839844 405 650.890625 405 L 274.820312 405 C 273.871094 405 272.929688 405.09375 271.996094 405.277344 C 271.066406 405.464844 270.160156 405.738281 269.285156 406.101562 C 268.40625 406.464844 267.574219 406.910156 266.78125 407.4375 C 265.992188 407.964844 265.261719 408.566406 264.589844 409.238281 C 263.917969 409.90625 263.320312 410.636719 262.792969 411.429688 C 262.265625 412.21875 261.820312 413.050781 261.457031 413.929688 C 261.09375 414.804688 260.816406 415.710938 260.632812 416.640625 C 260.449219 417.574219 260.355469 418.515625 260.355469 419.464844 C 260.355469 420.414062 260.449219 421.355469 260.632812 422.285156 C 260.816406 423.21875 261.09375 424.121094 261.457031 425 C 261.820312 425.878906 262.265625 426.710938 262.792969 427.5 C 263.320312 428.289062 263.917969 429.019531 264.589844 429.691406 C 265.261719 430.363281 265.992188 430.964844 266.78125 431.492188 C 267.574219 432.019531 268.40625 432.464844 269.285156 432.828125 C 270.160156 433.191406 271.066406 433.464844 271.996094 433.652344 C 272.929688 433.835938 273.871094 433.929688 274.820312 433.929688 Z M 274.820312 433.929688 " fill-opacity="1" fill-rule="nonzero"/><path fill="#1f1f1f" d="M 274.820312 520.714844 L 650.890625 520.714844 C 651.839844 520.714844 652.78125 520.621094 653.710938 520.4375 C 654.644531 520.25 655.546875 519.976562 656.425781 519.613281 C 657.304688 519.25 658.136719 518.804688 658.925781 518.277344 C 659.714844 517.75 660.445312 517.148438 661.117188 516.476562 C 661.789062 515.804688 662.390625 515.074219 662.917969 514.285156 C 663.445312 513.496094 663.890625 512.664062 664.253906 511.785156 C 664.617188 510.90625 664.890625 510.003906 665.078125 509.070312 C 665.261719 508.140625 665.355469 507.199219 665.355469 506.25 C 665.355469 505.300781 665.261719 504.359375 665.078125 503.429688 C 664.890625 502.496094 664.617188 501.59375 664.253906 500.714844 C 663.890625 499.835938 663.445312 499.003906 662.917969 498.214844 C 662.390625 497.425781 661.789062 496.695312 661.117188 496.023438 C 660.445312 495.351562 659.714844 494.75 658.925781 494.222656 C 658.136719 493.695312 657.304688 493.25 656.425781 492.886719 C 655.546875 492.523438 654.644531 492.25 653.710938 492.0625 C 652.78125 491.878906 651.839844 491.785156 650.890625 491.785156 L 274.820312 491.785156 C 273.871094 491.785156 272.929688 491.878906 271.996094 492.0625 C 271.066406 492.25 270.160156 492.523438 269.285156 492.886719 C 268.40625 493.25 267.574219 493.695312 266.78125 494.222656 C 265.992188 494.75 265.261719 495.351562 264.589844 496.023438 C 263.917969 496.695312 263.320312 497.425781 262.792969 498.214844 C 262.265625 499.003906 261.820312 499.835938 261.457031 500.714844 C 261.09375 501.59375 260.816406 502.496094 260.632812 503.429688 C 260.449219 504.359375 260.355469 505.300781 260.355469 506.25 C 260.355469 507.199219 260.449219 508.140625 260.632812 509.070312 C 260.816406 510.003906 261.09375 510.90625 261.457031 511.785156 C 261.820312 512.664062 262.265625 513.496094 262.792969 514.285156 C 263.320312 515.074219 263.917969 515.804688 264.589844 516.476562 C 265.261719 517.148438 265.992188 517.75 266.78125 518.277344 C 267.574219 518.804688 268.40625 519.25 269.285156 519.613281 C 270.160156 519.976562 271.066406 520.25 271.996094 520.4375 C 272.929688 520.621094 273.871094 520.714844 274.820312 520.714844 Z M 274.820312 520.714844 " fill-opacity="1" fill-rule="nonzero"/><path fill="#1f1f1f" d="M 274.820312 607.5 L 650.890625 607.5 C 651.839844 607.5 652.78125 607.40625 653.710938 607.222656 C 654.644531 607.035156 655.546875 606.761719 656.425781 606.398438 C 657.304688 606.035156 658.136719 605.589844 658.925781 605.0625 C 659.714844 604.535156 660.445312 603.933594 661.117188 603.261719 C 661.789062 602.59375 662.390625 601.859375 662.917969 601.070312 C 663.445312 600.28125 663.890625 599.449219 664.253906 598.570312 C 664.617188 597.695312 664.890625 596.789062 665.078125 595.859375 C 665.261719 594.925781 665.355469 593.984375 665.355469 593.035156 C 665.355469 592.085938 665.261719 591.144531 665.078125 590.214844 C 664.890625 589.28125 664.617188 588.378906 664.253906 587.5 C 663.890625 586.621094 663.445312 585.789062 662.917969 585 C 662.390625 584.210938 661.789062 583.480469 661.117188 582.808594 C 660.445312 582.136719 659.714844 581.535156 658.925781 581.007812 C 658.136719 580.480469 657.304688 580.035156 656.425781 579.671875 C 655.546875 579.308594 654.644531 579.035156 653.710938 578.847656 C 652.78125 578.664062 651.839844 578.570312 650.890625 578.570312 L 274.820312 578.570312 C 273.871094 578.570312 272.929688 578.664062 271.996094 578.847656 C 271.066406 579.035156 270.160156 579.308594 269.285156 579.671875 C 268.40625 580.035156 267.574219 580.480469 266.78125 581.007812 C 265.992188 581.535156 265.261719 582.136719 264.589844 582.808594 C 263.917969 583.480469 263.320312 584.210938 262.792969 585 C 262.265625 585.789062 261.820312 586.621094 261.457031 587.5 C 261.09375 588.378906 260.816406 589.28125 260.632812 590.214844 C 260.449219 591.144531 260.355469 592.085938 260.355469 593.035156 C 260.355469 593.984375 260.449219 594.925781 260.632812 595.859375 C 260.816406 596.789062 261.09375 597.695312 261.457031 598.570312 C 261.820312 599.449219 262.265625 600.28125 262.792969 601.070312 C 263.320312 601.859375 263.917969 602.59375 264.589844 603.261719 C 265.261719 603.933594 265.992188 604.535156 266.78125 605.0625 C 267.574219 605.589844 268.40625 606.035156 269.285156 606.398438 C 270.160156 606.761719 271.066406 607.035156 271.996094 607.222656 C 272.929688 607.40625 273.871094 607.5 274.820312 607.5 Z M 274.820312 607.5 " fill-opacity="1" fill-rule="nonzero"/><path fill="#1f1f1f" d="M 564.105469 347.144531 L 650.890625 347.144531 C 651.839844 347.144531 652.78125 347.050781 653.710938 346.863281 C 654.644531 346.679688 655.546875 346.40625 656.425781 346.042969 C 657.304688 345.679688 658.136719 345.234375 658.925781 344.707031 C 659.714844 344.175781 660.445312 343.578125 661.117188 342.90625 C 661.789062 342.234375 662.390625 341.503906 662.917969 340.714844 C 663.445312 339.925781 663.890625 339.089844 664.253906 338.214844 C 664.617188 337.335938 664.890625 336.433594 665.078125 335.5 C 665.261719 334.570312 665.355469 333.628906 665.355469 332.679688 L 665.355469 101.25 C 665.355469 100.300781 665.261719 99.359375 665.078125 98.429688 C 664.890625 97.496094 664.617188 96.59375 664.253906 95.714844 C 663.890625 94.835938 663.445312 94.003906 662.917969 93.214844 C 662.390625 92.425781 661.789062 91.695312 661.117188 91.023438 C 660.445312 90.351562 659.714844 89.75 658.925781 89.222656 C 658.136719 88.695312 657.304688 88.25 656.425781 87.886719 C 655.546875 87.523438 654.644531 87.25 653.710938 87.0625 C 652.78125 86.878906 651.839844 86.785156 650.890625 86.785156 L 564.105469 86.785156 C 563.15625 86.785156 562.214844 86.878906 561.28125 87.0625 C 560.351562 87.25 559.445312 87.523438 558.570312 87.886719 C 557.691406 88.25 556.859375 88.695312 556.070312 89.222656 C 555.277344 89.75 554.546875 90.351562 553.878906 91.023438 C 553.207031 91.695312 552.605469 92.425781 552.078125 93.214844 C 551.550781 94.003906 551.105469 94.835938 550.742188 95.714844 C 550.378906 96.59375 550.105469 97.496094 549.917969 98.429688 C 549.734375 99.359375 549.640625 100.300781 549.640625 101.25 L 549.640625 332.679688 C 549.640625 333.628906 549.734375 334.570312 549.917969 335.5 C 550.105469 336.433594 550.378906 337.335938 550.742188 338.214844 C 551.105469 339.089844 551.550781 339.925781 552.078125 340.714844 C 552.605469 341.503906 553.207031 342.234375 553.878906 342.90625 C 554.546875 343.578125 555.277344 344.175781 556.070312 344.707031 C 556.859375 345.234375 557.691406 345.679688 558.570312 346.042969 C 559.445312 346.40625 560.351562 346.679688 561.28125 346.863281 C 562.214844 347.050781 563.15625 347.144531 564.105469 347.144531 Z M 578.570312 115.714844 L 636.425781 115.714844 L 636.425781 318.214844 L 578.570312 318.214844 Z M 578.570312 115.714844 " fill-opacity="1" fill-rule="nonzero"/><path fill="#1f1f1f" d="M 419.460938 347.144531 L 506.246094 347.144531 C 507.199219 347.144531 508.136719 347.050781 509.070312 346.863281 C 510 346.679688 510.90625 346.40625 511.78125 346.042969 C 512.660156 345.679688 513.492188 345.234375 514.285156 344.707031 C 515.074219 344.175781 515.804688 343.578125 516.476562 342.90625 C 517.148438 342.234375 517.746094 341.503906 518.273438 340.714844 C 518.800781 339.925781 519.246094 339.089844 519.609375 338.214844 C 519.972656 337.335938 520.25 336.433594 520.433594 335.5 C 520.621094 334.570312 520.710938 333.628906 520.710938 332.679688 L 520.710938 188.035156 C 520.710938 187.085938 520.621094 186.144531 520.433594 185.214844 C 520.25 184.28125 519.972656 183.378906 519.609375 182.5 C 519.246094 181.621094 518.800781 180.789062 518.273438 180 C 517.746094 179.210938 517.148438 178.480469 516.476562 177.808594 C 515.804688 177.136719 515.074219 176.535156 514.285156 176.007812 C 513.492188 175.480469 512.660156 175.035156 511.78125 174.671875 C 510.90625 174.308594 510 174.035156 509.070312 173.847656 C 508.136719 173.664062 507.199219 173.570312 506.246094 173.570312 L 419.460938 173.570312 C 418.511719 173.570312 417.570312 173.664062 416.640625 173.847656 C 415.707031 174.035156 414.804688 174.308594 413.925781 174.671875 C 413.050781 175.035156 412.214844 175.480469 411.425781 176.007812 C 410.636719 176.535156 409.90625 177.136719 409.234375 177.808594 C 408.5625 178.480469 407.964844 179.210938 407.433594 180 C 406.90625 180.789062 406.460938 181.625 406.097656 182.5 C 405.734375 183.378906 405.460938 184.28125 405.277344 185.214844 C 405.089844 186.144531 404.996094 187.085938 404.996094 188.035156 L 404.996094 332.679688 C 404.996094 333.628906 405.089844 334.570312 405.277344 335.5 C 405.460938 336.433594 405.734375 337.335938 406.097656 338.214844 C 406.460938 339.089844 406.90625 339.925781 407.433594 340.714844 C 407.964844 341.503906 408.5625 342.234375 409.234375 342.90625 C 409.90625 343.578125 410.636719 344.175781 411.425781 344.707031 C 412.214844 345.234375 413.050781 345.679688 413.925781 346.042969 C 414.804688 346.40625 415.707031 346.679688 416.640625 346.863281 C 417.570312 347.050781 418.511719 347.144531 419.460938 347.144531 Z M 433.925781 202.5 L 491.785156 202.5 L 491.785156 318.214844 L 433.925781 318.214844 Z M 433.925781 202.5 " fill-opacity="1" fill-rule="nonzero"/><path fill="#1f1f1f" d="M 274.820312 347.144531 L 361.605469 347.144531 C 362.554688 347.144531 363.496094 347.050781 364.425781 346.863281 C 365.359375 346.679688 366.261719 346.40625 367.140625 346.042969 C 368.015625 345.679688 368.851562 345.234375 369.640625 344.707031 C 370.429688 344.175781 371.160156 343.578125 371.832031 342.90625 C 372.503906 342.234375 373.105469 341.503906 373.632812 340.714844 C 374.160156 339.925781 374.605469 339.089844 374.96875 338.214844 C 375.332031 337.335938 375.605469 336.433594 375.792969 335.5 C 375.976562 334.570312 376.070312 333.628906 376.070312 332.679688 L 376.070312 245.894531 C 376.070312 244.941406 375.976562 244.003906 375.792969 243.070312 C 375.605469 242.140625 375.332031 241.234375 374.96875 240.359375 C 374.605469 239.480469 374.160156 238.648438 373.632812 237.855469 C 373.105469 237.066406 372.503906 236.335938 371.832031 235.664062 C 371.160156 234.992188 370.429688 234.394531 369.640625 233.867188 C 368.851562 233.339844 368.015625 232.894531 367.140625 232.53125 C 366.261719 232.167969 365.359375 231.890625 364.425781 231.707031 C 363.496094 231.519531 362.554688 231.429688 361.605469 231.429688 L 274.820312 231.429688 C 273.871094 231.429688 272.929688 231.519531 271.996094 231.707031 C 271.066406 231.890625 270.160156 232.167969 269.285156 232.53125 C 268.40625 232.894531 267.574219 233.339844 266.78125 233.867188 C 265.992188 234.394531 265.261719 234.992188 264.589844 235.664062 C 263.917969 236.335938 263.320312 237.066406 262.792969 237.855469 C 262.265625 238.648438 261.820312 239.480469 261.457031 240.359375 C 261.09375 241.234375 260.816406 242.140625 260.632812 243.070312 C 260.449219 244.003906 260.355469 244.941406 260.355469 245.894531 L 260.355469 332.679688 C 260.355469 333.628906 260.449219 334.570312 260.632812 335.5 C 260.816406 336.433594 261.09375 337.335938 261.457031 338.214844 C 261.820312 339.089844 262.265625 339.925781 262.792969 340.714844 C 263.320312 341.503906 263.917969 342.234375 264.589844 342.90625 C 265.261719 343.578125 265.992188 344.175781 266.78125 344.707031 C 267.574219 345.234375 268.40625 345.679688 269.285156 346.042969 C 270.160156 346.40625 271.066406 346.679688 271.996094 346.863281 C 272.929688 347.050781 273.871094 347.144531 274.820312 347.144531 Z M 289.285156 260.355469 L 347.140625 260.355469 L 347.140625 318.214844 L 289.285156 318.214844 Z M 289.285156 260.355469 " fill-opacity="1" fill-rule="nonzero"/></svg>