<svg xmlns="http://www.w3.org/2000/svg" xmlns:xlink="http://www.w3.org/1999/xlink" width="1080" zoomAndPan="magnify" viewBox="0 0 810 809.999993" height="1080" preserveAspectRatio="xMidYMid meet" version="1.0"><path fill="#616161" d="M 765.457031 762.253906 L 595.90625 538.058594 C 600.238281 533.347656 604.417969 528.503906 608.445312 523.527344 C 612.46875 518.550781 616.332031 513.453125 620.035156 508.230469 C 623.738281 503.007812 627.269531 497.675781 630.632812 492.230469 C 633.996094 486.78125 637.1875 481.234375 640.199219 475.585938 C 643.210938 469.9375 646.039062 464.203125 648.6875 458.375 C 651.332031 452.546875 653.792969 446.640625 656.066406 440.65625 C 658.339844 434.671875 660.421875 428.621094 662.308594 422.507812 C 664.199219 416.390625 665.890625 410.222656 667.390625 404 C 668.886719 397.773438 670.183594 391.511719 671.285156 385.203125 C 672.386719 378.898438 673.285156 372.566406 673.980469 366.203125 C 674.679688 359.839844 675.175781 353.460938 675.46875 347.066406 C 675.761719 340.671875 675.851562 334.273438 675.738281 327.875 C 675.625 321.476562 675.3125 315.085938 674.792969 308.707031 C 674.273438 302.324219 673.554688 295.96875 672.632812 289.632812 C 671.710938 283.300781 670.589844 277 669.269531 270.738281 C 667.945312 264.476562 666.429688 258.261719 664.710938 252.09375 C 662.996094 245.925781 661.085938 239.820312 658.984375 233.777344 C 656.878906 227.730469 654.589844 221.757812 652.105469 215.855469 C 649.625 209.957031 646.957031 204.140625 644.105469 198.410156 C 641.253906 192.679688 638.222656 187.046875 635.015625 181.507812 C 631.804688 175.96875 628.425781 170.539062 624.871094 165.214844 C 621.316406 159.890625 617.601562 154.683594 613.714844 149.59375 C 609.832031 144.507812 605.789062 139.546875 601.59375 134.714844 C 597.394531 129.882812 593.046875 125.191406 588.550781 120.636719 C 584.054688 116.078125 579.417969 111.671875 574.640625 107.410156 C 569.863281 103.148438 564.957031 99.042969 559.921875 95.09375 C 554.882812 91.140625 549.726562 87.355469 544.449219 83.734375 C 539.171875 80.109375 533.789062 76.65625 528.292969 73.375 C 522.796875 70.097656 517.199219 66.992188 511.507812 64.066406 C 505.816406 61.140625 500.035156 58.398438 494.167969 55.839844 C 488.300781 53.277344 482.359375 50.910156 476.339844 48.726562 C 470.324219 46.542969 464.242188 44.554688 458.097656 42.757812 C 451.957031 40.960938 445.761719 39.363281 439.515625 37.960938 C 433.269531 36.554688 426.988281 35.351562 420.664062 34.347656 C 414.34375 33.34375 407.996094 32.539062 401.625 31.9375 C 395.25 31.335938 388.867188 30.9375 382.46875 30.742188 C 376.070312 30.542969 369.671875 30.550781 363.273438 30.761719 C 356.878906 30.96875 350.492188 31.382812 344.121094 31.996094 C 337.75 32.609375 331.40625 33.425781 325.085938 34.445312 C 318.765625 35.460938 312.484375 36.679688 306.242188 38.09375 C 300 39.507812 293.808594 41.121094 287.667969 42.929688 C 281.527344 44.738281 275.453125 46.742188 269.4375 48.933594 C 263.425781 51.128906 257.488281 53.511719 251.628906 56.082031 C 245.765625 58.65625 239.992188 61.410156 234.304688 64.347656 C 228.617188 67.285156 223.027344 70.398438 217.539062 73.691406 C 212.050781 76.984375 206.671875 80.445312 201.398438 84.078125 C 196.128906 87.710938 190.980469 91.511719 185.953125 95.46875 C 180.925781 99.429688 176.027344 103.546875 171.257812 107.816406 C 166.492188 112.089844 161.863281 116.507812 157.375 121.070312 C 152.890625 125.636719 148.550781 130.339844 144.363281 135.179688 C 140.171875 140.019531 136.140625 144.984375 132.269531 150.082031 C 128.394531 155.175781 124.6875 160.390625 121.144531 165.722656 C 117.601562 171.054688 114.230469 176.492188 111.035156 182.035156 C 107.835938 187.582031 104.816406 193.222656 101.976562 198.957031 C 99.136719 204.695312 96.484375 210.515625 94.011719 216.421875 C 91.542969 222.324219 89.261719 228.304688 87.171875 234.351562 C 85.078125 240.402344 83.183594 246.511719 81.480469 252.683594 C 79.777344 258.851562 78.269531 265.070312 76.960938 271.335938 C 75.652344 277.601562 74.542969 283.902344 73.636719 290.238281 C 72.726562 296.574219 72.019531 302.933594 71.511719 309.316406 C 71.007812 315.695312 70.707031 322.085938 70.605469 328.488281 C 70.507812 334.886719 70.609375 341.285156 70.914062 347.675781 C 71.222656 354.070312 71.730469 360.449219 72.441406 366.808594 C 73.152344 373.171875 74.0625 379.503906 75.175781 385.808594 C 76.289062 392.109375 77.597656 398.371094 79.109375 404.59375 C 80.621094 410.8125 82.324219 416.980469 84.226562 423.089844 C 86.128906 429.203125 88.222656 435.25 90.503906 441.226562 C 92.789062 447.207031 95.261719 453.109375 97.921875 458.929688 C 100.582031 464.753906 103.421875 470.484375 106.445312 476.128906 C 109.46875 481.769531 112.667969 487.308594 116.042969 492.75 C 119.417969 498.1875 122.960938 503.515625 126.671875 508.730469 C 130.386719 513.941406 134.261719 519.035156 138.296875 524.003906 C 142.332031 528.96875 146.523438 533.804688 150.863281 538.507812 C 155.207031 543.210938 159.695312 547.769531 164.328125 552.1875 C 168.957031 556.605469 173.726562 560.871094 178.628906 564.988281 C 183.53125 569.101562 188.558594 573.058594 193.714844 576.855469 C 198.867188 580.652344 204.136719 584.28125 209.519531 587.742188 C 214.902344 591.203125 220.390625 594.492188 225.984375 597.605469 C 231.578125 600.71875 237.261719 603.652344 243.042969 606.402344 C 248.820312 609.15625 254.679688 611.722656 260.621094 614.105469 C 266.566406 616.484375 272.574219 618.675781 278.65625 620.675781 C 284.738281 622.675781 290.875 624.480469 297.070312 626.089844 C 303.265625 627.699219 309.503906 629.109375 315.789062 630.324219 C 322.074219 631.539062 328.390625 632.550781 334.742188 633.363281 C 341.089844 634.175781 347.457031 634.789062 353.847656 635.199219 C 360.234375 635.605469 366.628906 635.8125 373.03125 635.816406 C 379.429688 635.820312 385.824219 635.617188 392.214844 635.214844 C 398.601562 634.8125 404.96875 634.207031 411.320312 633.402344 C 417.671875 632.59375 423.988281 631.585938 430.273438 630.378906 C 436.558594 629.171875 442.800781 627.765625 449 626.164062 C 455.195312 624.558594 461.335938 622.761719 467.417969 620.765625 C 473.5 618.773438 479.511719 616.589844 485.457031 614.214844 C 491.402344 611.839844 497.265625 609.277344 503.046875 606.53125 C 508.828125 603.785156 514.515625 600.855469 520.109375 597.75 C 525.707031 594.640625 531.199219 591.359375 536.585938 587.902344 C 541.972656 584.445312 547.246094 580.820312 552.402344 577.03125 L 719.042969 797.417969 C 719.617188 798.183594 720.230469 798.917969 720.882812 799.621094 C 721.53125 800.328125 722.214844 801 722.929688 801.636719 C 723.644531 802.273438 724.390625 802.875 725.167969 803.441406 C 725.941406 804.007812 726.742188 804.53125 727.570312 805.015625 C 728.394531 805.503906 729.242188 805.949219 730.113281 806.351562 C 730.984375 806.753906 731.871094 807.113281 732.777344 807.429688 C 733.683594 807.742188 734.601562 808.015625 735.53125 808.238281 C 736.464844 808.464844 737.40625 808.644531 738.355469 808.777344 C 739.304688 808.910156 740.257812 808.996094 741.214844 809.035156 C 742.175781 809.074219 743.132812 809.066406 744.089844 809.011719 C 745.046875 808.953125 746 808.851562 746.945312 808.703125 C 747.894531 808.554688 748.832031 808.363281 749.757812 808.121094 C 750.6875 807.878906 751.601562 807.59375 752.5 807.265625 C 753.402344 806.933594 754.285156 806.558594 755.148438 806.140625 C 756.011719 805.726562 756.851562 805.265625 757.667969 804.765625 C 758.488281 804.265625 759.277344 803.730469 760.042969 803.152344 C 760.808594 802.574219 761.546875 801.960938 762.25 801.308594 C 762.957031 800.660156 763.625 799.976562 764.265625 799.261719 C 764.902344 798.546875 765.503906 797.800781 766.070312 797.027344 C 766.632812 796.25 767.160156 795.449219 767.644531 794.625 C 768.132812 793.796875 768.574219 792.949219 768.976562 792.078125 C 769.382812 791.207031 769.738281 790.320312 770.054688 789.414062 C 770.371094 788.511719 770.640625 787.589844 770.867188 786.660156 C 771.09375 785.726562 771.269531 784.785156 771.402344 783.835938 C 771.535156 782.886719 771.621094 781.933594 771.660156 780.976562 C 771.699219 780.019531 771.691406 779.058594 771.636719 778.101562 C 771.582031 777.144531 771.480469 776.191406 771.332031 775.246094 C 771.183594 774.296875 770.988281 773.359375 770.75 772.433594 C 770.507812 771.503906 770.222656 770.589844 769.890625 769.691406 C 769.5625 768.789062 769.1875 767.910156 768.769531 767.046875 C 768.351562 766.183594 767.894531 765.339844 767.394531 764.523438 C 766.894531 763.703125 766.355469 762.914062 765.777344 762.148438 Z M 119.613281 333.167969 C 119.613281 329.015625 119.714844 324.867188 119.917969 320.722656 C 120.121094 316.574219 120.425781 312.4375 120.832031 308.304688 C 121.238281 304.171875 121.742188 300.054688 122.351562 295.949219 C 122.960938 291.839844 123.671875 287.753906 124.480469 283.679688 C 125.289062 279.609375 126.199219 275.558594 127.207031 271.53125 C 128.214844 267.507812 129.320312 263.507812 130.523438 259.535156 C 131.730469 255.5625 133.03125 251.621094 134.429688 247.710938 C 135.828125 243.800781 137.320312 239.929688 138.90625 236.09375 C 140.496094 232.257812 142.175781 228.464844 143.953125 224.710938 C 145.726562 220.960938 147.59375 217.253906 149.546875 213.589844 C 151.503906 209.929688 153.550781 206.320312 155.683594 202.757812 C 157.816406 199.195312 160.039062 195.691406 162.34375 192.238281 C 164.648438 188.785156 167.039062 185.394531 169.511719 182.058594 C 171.984375 178.722656 174.535156 175.453125 177.171875 172.242188 C 179.804688 169.035156 182.515625 165.890625 185.300781 162.816406 C 188.089844 159.738281 190.949219 156.734375 193.886719 153.796875 C 196.820312 150.859375 199.824219 148 202.902344 145.210938 C 205.976562 142.421875 209.121094 139.710938 212.328125 137.078125 C 215.535156 134.445312 218.808594 131.890625 222.140625 129.417969 C 225.476562 126.945312 228.871094 124.554688 232.320312 122.246094 C 235.773438 119.941406 239.277344 117.722656 242.839844 115.585938 C 246.398438 113.453125 250.011719 111.40625 253.671875 109.449219 C 257.332031 107.492188 261.039062 105.625 264.792969 103.851562 C 268.542969 102.074219 272.335938 100.394531 276.171875 98.804688 C 280.007812 97.214844 283.878906 95.722656 287.789062 94.324219 C 291.695312 92.925781 295.636719 91.621094 299.609375 90.417969 C 303.582031 89.210938 307.582031 88.105469 311.609375 87.09375 C 315.636719 86.085938 319.683594 85.175781 323.757812 84.367188 C 327.828125 83.554688 331.917969 82.847656 336.023438 82.238281 C 340.128906 81.628906 344.25 81.121094 348.378906 80.710938 C 352.511719 80.304688 356.648438 80 360.796875 79.796875 C 364.941406 79.59375 369.089844 79.488281 373.242188 79.488281 C 377.394531 79.488281 381.542969 79.589844 385.6875 79.796875 C 389.835938 80 393.972656 80.304688 398.105469 80.710938 C 402.234375 81.117188 406.355469 81.625 410.460938 82.234375 C 414.566406 82.84375 418.65625 83.550781 422.726562 84.363281 C 426.800781 85.171875 430.847656 86.082031 434.875 87.089844 C 438.902344 88.097656 442.902344 89.203125 446.875 90.410156 C 450.847656 91.613281 454.789062 92.917969 458.695312 94.316406 C 462.605469 95.714844 466.476562 97.207031 470.3125 98.796875 C 474.148438 100.382812 477.941406 102.066406 481.695312 103.839844 C 485.449219 105.613281 489.15625 107.480469 492.816406 109.4375 C 496.476562 111.394531 500.089844 113.441406 503.648438 115.574219 C 507.210938 117.707031 510.714844 119.929688 514.167969 122.234375 C 517.621094 124.539062 521.011719 126.929688 524.347656 129.402344 C 527.679688 131.875 530.953125 134.429688 534.160156 137.0625 C 537.371094 139.695312 540.511719 142.40625 543.589844 145.195312 C 546.664062 147.984375 549.671875 150.84375 552.605469 153.78125 C 555.542969 156.714844 558.402344 159.722656 561.191406 162.796875 C 563.980469 165.871094 566.6875 169.015625 569.324219 172.222656 C 571.957031 175.433594 574.507812 178.703125 576.984375 182.039062 C 579.457031 185.375 581.84375 188.765625 584.152344 192.21875 C 586.457031 195.671875 588.679688 199.175781 590.8125 202.738281 C 592.945312 206.296875 594.992188 209.910156 596.949219 213.570312 C 598.90625 217.230469 600.769531 220.9375 602.546875 224.691406 C 604.320312 228.445312 606.003906 232.238281 607.589844 236.074219 C 609.179688 239.90625 610.671875 243.78125 612.070312 247.6875 C 613.46875 251.597656 614.773438 255.539062 615.976562 259.511719 C 617.179688 263.484375 618.289062 267.484375 619.296875 271.511719 C 620.304688 275.535156 621.214844 279.585938 622.023438 283.65625 C 622.832031 287.730469 623.542969 291.816406 624.152344 295.925781 C 624.761719 300.03125 625.269531 304.148438 625.675781 308.28125 C 626.082031 312.414062 626.386719 316.550781 626.589844 320.699219 C 626.792969 324.84375 626.894531 328.992188 626.894531 333.144531 C 626.894531 337.296875 626.792969 341.445312 626.589844 345.589844 C 626.386719 349.738281 626.082031 353.875 625.671875 358.007812 C 625.265625 362.136719 624.757812 366.257812 624.148438 370.363281 C 623.539062 374.46875 622.828125 378.558594 622.019531 382.628906 C 621.210938 386.699219 620.300781 390.75 619.289062 394.777344 C 618.28125 398.804688 617.175781 402.804688 615.96875 406.777344 C 614.765625 410.75 613.460938 414.6875 612.0625 418.597656 C 610.664062 422.507812 609.171875 426.378906 607.582031 430.214844 C 605.992188 434.046875 604.3125 437.84375 602.535156 441.59375 C 600.761719 445.347656 598.894531 449.054688 596.9375 452.714844 C 594.980469 456.375 592.933594 459.988281 590.800781 463.546875 C 588.664062 467.109375 586.445312 470.613281 584.136719 474.066406 C 581.832031 477.515625 579.441406 480.910156 576.96875 484.242188 C 574.496094 487.578125 571.941406 490.847656 569.308594 494.058594 C 566.675781 497.265625 563.964844 500.410156 561.175781 503.484375 C 558.386719 506.558594 555.523438 509.566406 552.589844 512.5 C 549.652344 515.4375 546.648438 518.296875 543.570312 521.085938 C 540.496094 523.871094 537.351562 526.582031 534.144531 529.214844 C 530.933594 531.847656 527.660156 534.402344 524.328125 536.875 C 520.992188 539.347656 517.597656 541.734375 514.148438 544.042969 C 510.695312 546.347656 507.1875 548.566406 503.628906 550.703125 C 500.066406 552.835938 496.457031 554.878906 492.796875 556.835938 C 489.132812 558.792969 485.425781 560.660156 481.671875 562.433594 C 477.921875 564.207031 474.125 565.890625 470.292969 567.476562 C 466.457031 569.066406 462.582031 570.558594 458.675781 571.957031 C 454.765625 573.355469 450.824219 574.65625 446.851562 575.859375 C 442.878906 577.066406 438.878906 578.171875 434.851562 579.179688 C 430.824219 580.1875 426.777344 581.097656 422.703125 581.90625 C 418.632812 582.714844 414.542969 583.425781 410.4375 584.035156 C 406.332031 584.640625 402.210938 585.148438 398.082031 585.554688 C 393.949219 585.960938 389.8125 586.265625 385.664062 586.46875 C 381.519531 586.671875 377.371094 586.773438 373.21875 586.773438 C 369.066406 586.773438 364.921875 586.671875 360.773438 586.464844 C 356.628906 586.261719 352.492188 585.957031 348.363281 585.550781 C 344.230469 585.140625 340.113281 584.632812 336.007812 584.023438 C 331.902344 583.414062 327.816406 582.703125 323.746094 581.894531 C 319.675781 581.085938 315.625 580.175781 311.601562 579.167969 C 307.574219 578.15625 303.574219 577.050781 299.605469 575.84375 C 295.632812 574.640625 291.691406 573.339844 287.785156 571.941406 C 283.878906 570.542969 280.007812 569.046875 276.171875 567.460938 C 272.339844 565.871094 268.546875 564.1875 264.792969 562.414062 C 261.042969 560.640625 257.335938 558.773438 253.675781 556.816406 C 250.015625 554.859375 246.40625 552.816406 242.847656 550.683594 C 239.285156 548.546875 235.78125 546.328125 232.332031 544.023438 C 228.878906 541.714844 225.488281 539.328125 222.15625 536.855469 C 218.820312 534.382812 215.550781 531.828125 212.34375 529.195312 C 209.132812 526.5625 205.992188 523.855469 202.917969 521.066406 C 199.84375 518.277344 196.835938 515.417969 193.902344 512.484375 C 190.96875 509.550781 188.105469 506.542969 185.320312 503.46875 C 182.53125 500.394531 179.820312 497.253906 177.1875 494.042969 C 174.554688 490.835938 172.003906 487.566406 169.53125 484.230469 C 167.058594 480.898438 164.667969 477.503906 162.363281 474.054688 C 160.058594 470.605469 157.839844 467.097656 155.703125 463.539062 C 153.570312 459.980469 151.523438 456.371094 149.570312 452.710938 C 147.613281 449.050781 145.746094 445.34375 143.972656 441.589844 C 142.195312 437.839844 140.515625 434.046875 138.925781 430.210938 C 137.339844 426.378906 135.84375 422.507812 134.445312 418.601562 C 133.046875 414.691406 131.746094 410.753906 130.539062 406.78125 C 129.335938 402.808594 128.226562 398.8125 127.21875 394.785156 C 126.210938 390.761719 125.300781 386.710938 124.492188 382.640625 C 123.679688 378.570312 122.972656 374.484375 122.363281 370.378906 C 121.753906 366.273438 121.242188 362.15625 120.835938 358.023438 C 120.429688 353.894531 120.125 349.757812 119.917969 345.609375 C 119.714844 341.464844 119.613281 337.316406 119.613281 333.167969 Z M 119.613281 333.167969 " fill-opacity="1" fill-rule="nonzero"/></svg>