<svg xmlns="http://www.w3.org/2000/svg" xmlns:xlink="http://www.w3.org/1999/xlink" width="1080" zoomAndPan="magnify" viewBox="0 0 810 809.999993" height="1080" preserveAspectRatio="xMidYMid meet" version="1.0"><path fill="#ffffff" d="M 743.726562 49.089844 L 675 49.089844 C 668.863281 20.863281 644.316406 0 614.863281 0 C 585.410156 0 560.863281 20.863281 554.726562 49.089844 L 255.273438 49.089844 C 249.136719 20.863281 224.589844 0 195.136719 0 C 165.683594 0 139.910156 20.863281 135 49.089844 L 66.273438 49.089844 C 29.453125 49.089844 0 78.546875 0 115.363281 L 0 627.136719 C 0 663.953125 29.453125 693.410156 66.273438 693.410156 L 467.589844 693.410156 C 488.453125 760.910156 551.046875 810 624.683594 810 C 704.453125 810 770.726562 753.546875 785.453125 678.683594 C 800.183594 666.410156 810 646.773438 810 627.136719 L 810 115.363281 C 810 78.546875 780.546875 49.089844 743.726562 49.089844 Z M 614.863281 24.546875 C 635.726562 24.546875 651.683594 40.5 651.683594 61.363281 C 651.683594 82.226562 635.726562 98.183594 614.863281 98.183594 C 594 98.183594 578.046875 82.226562 578.046875 61.363281 C 578.046875 40.5 595.226562 24.546875 614.863281 24.546875 Z M 195.136719 24.546875 C 216 24.546875 231.953125 40.5 231.953125 61.363281 C 231.953125 82.226562 216 98.183594 195.136719 98.183594 C 174.273438 98.183594 158.316406 82.226562 158.316406 61.363281 C 158.316406 40.5 174.273438 24.546875 195.136719 24.546875 Z M 66.273438 73.636719 L 135 73.636719 C 141.136719 101.863281 165.683594 122.726562 195.136719 122.726562 C 224.589844 122.726562 249.136719 101.863281 255.273438 73.636719 L 555.953125 73.636719 C 562.089844 101.863281 586.636719 122.726562 616.089844 122.726562 C 645.546875 122.726562 670.089844 101.863281 676.226562 73.636719 L 743.726562 73.636719 C 767.046875 73.636719 785.453125 92.046875 785.453125 115.363281 L 785.453125 181.636719 L 24.546875 181.636719 L 24.546875 115.363281 C 24.546875 92.046875 42.953125 73.636719 66.273438 73.636719 Z M 66.273438 670.089844 C 42.953125 670.089844 24.546875 650.453125 24.546875 627.136719 L 24.546875 207.410156 L 785.453125 207.410156 L 785.453125 611.183594 C 769.5 537.546875 703.226562 482.316406 624.683594 482.316406 C 533.863281 482.316406 460.226562 555.953125 460.226562 646.773438 C 460.226562 655.363281 461.453125 662.726562 462.683594 671.316406 L 66.273438 671.316406 Z M 624.683594 785.453125 C 547.363281 785.453125 484.773438 722.863281 484.773438 645.546875 C 484.773438 568.226562 547.363281 505.636719 624.683594 505.636719 C 702 505.636719 764.589844 568.226562 764.589844 645.546875 C 764.589844 722.863281 702 785.453125 624.683594 785.453125 Z M 624.683594 785.453125 " fill-opacity="1" fill-rule="nonzero"/><path fill="#ffffff" d="M 147.273438 249.136719 L 81 249.136719 C 73.636719 249.136719 68.726562 254.046875 68.726562 261.410156 L 68.726562 327.683594 C 68.726562 335.046875 73.636719 339.953125 81 339.953125 L 147.273438 339.953125 C 154.636719 339.953125 159.546875 335.046875 159.546875 327.683594 L 159.546875 261.410156 C 159.546875 255.273438 154.636719 249.136719 147.273438 249.136719 Z M 135 315.410156 L 93.273438 315.410156 L 93.273438 273.683594 L 135 273.683594 Z M 135 315.410156 " fill-opacity="1" fill-rule="nonzero"/><path fill="#ffffff" d="M 290.863281 249.136719 L 224.589844 249.136719 C 217.226562 249.136719 212.316406 254.046875 212.316406 261.410156 L 212.316406 327.683594 C 212.316406 335.046875 217.226562 339.953125 224.589844 339.953125 L 290.863281 339.953125 C 298.226562 339.953125 303.136719 335.046875 303.136719 327.683594 L 303.136719 261.410156 C 303.136719 255.273438 298.226562 249.136719 290.863281 249.136719 Z M 278.589844 315.410156 L 236.863281 315.410156 L 236.863281 273.683594 L 278.589844 273.683594 Z M 278.589844 315.410156 " fill-opacity="1" fill-rule="nonzero"/><path fill="#ffffff" d="M 368.183594 339.953125 L 434.453125 339.953125 C 441.816406 339.953125 446.726562 335.046875 446.726562 327.683594 L 446.726562 261.410156 C 446.726562 254.046875 441.816406 249.136719 434.453125 249.136719 L 368.183594 249.136719 C 360.816406 249.136719 355.910156 254.046875 355.910156 261.410156 L 355.910156 327.683594 C 355.910156 335.046875 362.046875 339.953125 368.183594 339.953125 Z M 380.453125 273.683594 L 422.183594 273.683594 L 422.183594 315.410156 L 380.453125 315.410156 Z M 380.453125 273.683594 " fill-opacity="1" fill-rule="nonzero"/><path fill="#ffffff" d="M 511.773438 339.953125 L 578.046875 339.953125 C 585.410156 339.953125 590.316406 335.046875 590.316406 327.683594 L 590.316406 261.410156 C 590.316406 254.046875 585.410156 249.136719 578.046875 249.136719 L 511.773438 249.136719 C 504.410156 249.136719 499.5 254.046875 499.5 261.410156 L 499.5 327.683594 C 499.5 335.046875 505.636719 339.953125 511.773438 339.953125 Z M 524.046875 273.683594 L 565.773438 273.683594 L 565.773438 315.410156 L 524.046875 315.410156 Z M 524.046875 273.683594 " fill-opacity="1" fill-rule="nonzero"/><path fill="#ffffff" d="M 655.363281 339.953125 L 721.636719 339.953125 C 729 339.953125 733.910156 335.046875 733.910156 327.683594 L 733.910156 261.410156 C 733.910156 254.046875 729 249.136719 721.636719 249.136719 L 655.363281 249.136719 C 648 249.136719 643.089844 254.046875 643.089844 261.410156 L 643.089844 327.683594 C 643.089844 335.046875 649.226562 339.953125 655.363281 339.953125 Z M 667.636719 273.683594 L 709.363281 273.683594 L 709.363281 315.410156 L 667.636719 315.410156 Z M 667.636719 273.683594 " fill-opacity="1" fill-rule="nonzero"/><path fill="#ffffff" d="M 147.273438 379.226562 L 81 379.226562 C 73.636719 379.226562 68.726562 384.136719 68.726562 391.5 L 68.726562 457.773438 C 68.726562 465.136719 73.636719 470.046875 81 470.046875 L 147.273438 470.046875 C 154.636719 470.046875 159.546875 465.136719 159.546875 457.773438 L 159.546875 391.5 C 159.546875 385.363281 154.636719 379.226562 147.273438 379.226562 Z M 135 446.726562 L 93.273438 446.726562 L 93.273438 405 L 135 405 Z M 135 446.726562 " fill-opacity="1" fill-rule="nonzero"/><path fill="#ffffff" d="M 290.863281 379.226562 L 224.589844 379.226562 C 217.226562 379.226562 212.316406 384.136719 212.316406 391.5 L 212.316406 457.773438 C 212.316406 465.136719 217.226562 470.046875 224.589844 470.046875 L 290.863281 470.046875 C 298.226562 470.046875 303.136719 465.136719 303.136719 457.773438 L 303.136719 391.5 C 303.136719 385.363281 298.226562 379.226562 290.863281 379.226562 Z M 278.589844 446.726562 L 236.863281 446.726562 L 236.863281 405 L 278.589844 405 Z M 278.589844 446.726562 " fill-opacity="1" fill-rule="nonzero"/><path fill="#ffffff" d="M 511.773438 471.273438 L 578.046875 471.273438 C 585.410156 471.273438 590.316406 466.363281 590.316406 459 L 590.316406 392.726562 C 590.316406 385.363281 585.410156 380.453125 578.046875 380.453125 L 511.773438 380.453125 C 504.410156 380.453125 499.5 385.363281 499.5 392.726562 L 499.5 459 C 499.5 465.136719 505.636719 471.273438 511.773438 471.273438 Z M 524.046875 403.773438 L 565.773438 403.773438 L 565.773438 445.5 L 524.046875 445.5 Z M 524.046875 403.773438 " fill-opacity="1" fill-rule="nonzero"/><path fill="#ffffff" d="M 655.363281 471.273438 L 721.636719 471.273438 C 729 471.273438 733.910156 466.363281 733.910156 459 L 733.910156 392.726562 C 733.910156 385.363281 729 380.453125 721.636719 380.453125 L 655.363281 380.453125 C 648 380.453125 643.089844 385.363281 643.089844 392.726562 L 643.089844 459 C 643.089844 465.136719 649.226562 471.273438 655.363281 471.273438 Z M 667.636719 403.773438 L 709.363281 403.773438 L 709.363281 445.5 L 667.636719 445.5 Z M 667.636719 403.773438 " fill-opacity="1" fill-rule="nonzero"/><path fill="#ffffff" d="M 147.273438 510.546875 L 81 510.546875 C 73.636719 510.546875 68.726562 515.453125 68.726562 522.816406 L 68.726562 589.089844 C 68.726562 596.453125 73.636719 601.363281 81 601.363281 L 147.273438 601.363281 C 154.636719 601.363281 159.546875 596.453125 159.546875 589.089844 L 159.546875 522.816406 C 159.546875 515.453125 154.636719 510.546875 147.273438 510.546875 Z M 135 576.816406 L 93.273438 576.816406 L 93.273438 535.089844 L 135 535.089844 Z M 135 576.816406 " fill-opacity="1" fill-rule="nonzero"/><path fill="#ffffff" d="M 290.863281 510.546875 L 224.589844 510.546875 C 217.226562 510.546875 212.316406 515.453125 212.316406 522.816406 L 212.316406 589.089844 C 212.316406 596.453125 217.226562 601.363281 224.589844 601.363281 L 290.863281 601.363281 C 298.226562 601.363281 303.136719 596.453125 303.136719 589.089844 L 303.136719 522.816406 C 303.136719 515.453125 298.226562 510.546875 290.863281 510.546875 Z M 278.589844 576.816406 L 236.863281 576.816406 L 236.863281 535.089844 L 278.589844 535.089844 Z M 278.589844 576.816406 " fill-opacity="1" fill-rule="nonzero"/><path fill="#ffffff" d="M 434.453125 510.546875 L 368.183594 510.546875 C 360.816406 510.546875 355.910156 515.453125 355.910156 522.816406 L 355.910156 589.089844 C 355.910156 596.453125 360.816406 601.363281 368.183594 601.363281 L 434.453125 601.363281 C 441.816406 601.363281 446.726562 596.453125 446.726562 589.089844 L 446.726562 522.816406 C 446.726562 515.453125 441.816406 510.546875 434.453125 510.546875 Z M 422.183594 576.816406 L 380.453125 576.816406 L 380.453125 535.089844 L 422.183594 535.089844 Z M 422.183594 576.816406 " fill-opacity="1" fill-rule="nonzero"/><path fill="#ffffff" d="M 387.816406 471.273438 C 391.5 471.273438 395.183594 470.046875 397.636719 467.589844 L 468.816406 395.183594 C 473.726562 390.273438 473.726562 382.910156 468.816406 378 C 463.910156 373.089844 456.546875 373.089844 451.636719 378 L 390.273438 440.589844 L 370.636719 413.589844 C 366.953125 408.683594 358.363281 407.453125 353.453125 411.136719 C 348.546875 414.816406 347.316406 422.183594 351 428.316406 L 379.226562 467.589844 C 380.453125 468.816406 384.136719 470.046875 387.816406 471.273438 Z M 387.816406 471.273438 " fill-opacity="1" fill-rule="nonzero"/><path fill="#ffffff" d="M 636.953125 613.636719 L 636.953125 552.273438 C 636.953125 544.910156 632.046875 540 624.683594 540 C 617.316406 540 612.410156 544.910156 612.410156 552.273438 L 612.410156 613.636719 C 600.136719 618.546875 590.316406 630.816406 590.316406 645.546875 C 590.316406 663.953125 606.273438 679.910156 624.683594 679.910156 C 639.410156 679.910156 651.683594 671.316406 656.589844 657.816406 L 725.316406 657.816406 C 732.683594 657.816406 737.589844 652.910156 737.589844 645.546875 C 737.589844 638.183594 732.683594 633.273438 725.316406 633.273438 L 656.589844 633.273438 C 652.910156 624.683594 645.546875 617.316406 636.953125 613.636719 Z M 624.683594 655.363281 C 619.773438 655.363281 614.863281 650.453125 614.863281 645.546875 C 614.863281 640.636719 619.773438 635.726562 624.683594 635.726562 C 629.589844 635.726562 634.5 640.636719 634.5 645.546875 C 634.5 650.453125 630.816406 655.363281 624.683594 655.363281 Z M 624.683594 655.363281 " fill-opacity="1" fill-rule="nonzero"/></svg>