<svg xmlns="http://www.w3.org/2000/svg" xmlns:xlink="http://www.w3.org/1999/xlink" width="1080" zoomAndPan="magnify" viewBox="0 0 810 809.999993" height="1080" preserveAspectRatio="xMidYMid meet" version="1.0"><defs><clipPath id="672b4152a3"><path d="M 55.179688 1.011719 L 754.929688 1.011719 L 754.929688 808.988281 L 55.179688 808.988281 Z M 55.179688 1.011719 " clip-rule="nonzero"/></clipPath></defs><g clip-path="url(#672b4152a3)"><path fill="#616161" d="M 225.757812 46.417969 C 225.757812 21.3125 245.839844 1.011719 270.660156 1.011719 L 539.9375 1.011719 C 564.683594 1.011719 584.839844 21.382812 584.839844 46.417969 L 584.839844 91.824219 L 225.757812 91.824219 Z M 55.179688 128.121094 C 55.179688 108.035156 71.320312 91.824219 91.117188 91.824219 L 719.480469 91.824219 C 739.347656 91.824219 755.417969 108.105469 755.417969 128.121094 C 755.417969 148.132812 739.347656 164.414062 719.480469 164.414062 L 91.117188 164.414062 C 71.25 164.414062 55.179688 148.132812 55.179688 128.121094 Z M 495.105469 364.183594 C 495.105469 349.121094 507.15625 336.925781 522.003906 336.925781 C 536.851562 336.925781 548.976562 349.121094 548.976562 364.183594 L 548.976562 664.878906 C 548.976562 679.945312 536.851562 692.136719 522.003906 692.136719 C 507.085938 692.136719 495.105469 679.871094 495.105469 664.878906 Z M 378.328125 364.183594 C 378.328125 349.121094 390.449219 336.925781 405.300781 336.925781 C 420.21875 336.925781 432.199219 349.121094 432.199219 364.183594 L 432.199219 672.769531 C 432.199219 687.835938 420.148438 700.027344 405.300781 700.027344 C 390.449219 700.027344 378.328125 687.90625 378.328125 672.769531 Z M 261.621094 364.183594 C 261.621094 349.121094 273.746094 336.925781 288.59375 336.925781 C 303.441406 336.925781 315.492188 349.121094 315.492188 364.183594 L 315.492188 672.769531 C 315.492188 687.835938 303.441406 700.027344 288.59375 700.027344 C 273.746094 700.027344 261.621094 687.90625 261.621094 672.769531 Z M 660.300781 209.820312 C 688.0625 209.820312 707.644531 232.414062 704.128906 260.105469 L 640.359375 758.703125 C 636.773438 786.464844 611.382812 808.988281 583.691406 808.988281 L 226.90625 808.988281 C 199.144531 808.988281 173.824219 786.390625 170.238281 758.703125 L 106.46875 260.105469 C 102.953125 232.34375 122.535156 209.820312 150.296875 209.820312 L 660.300781 209.820312 " fill-opacity="1" fill-rule="nonzero"/></g></svg>