<svg width="369" height="369" viewBox="0 0 369 369" fill="none" xmlns="http://www.w3.org/2000/svg">
<g clip-path="url(#clip0_919_2557)">
<rect width="369" height="369" fill="#1D72F2"/>
<g filter="url(#filter0_f_919_2557)">
<circle cx="229.5" cy="87.5" r="67.5" fill="#EBEBEB"/>
</g>
<g filter="url(#filter1_f_919_2557)">
<circle cx="43" cy="367" r="87" fill="#EBEBEB"/>
</g>
<path d="M168.07 328.404L168.814 311.684C176.57 307.541 185.221 305.352 194.015 305.308C181.911 315.198 183.424 334.264 175.218 347.564C172.627 351.692 169.139 355.185 165.014 357.783C160.889 360.382 156.231 362.019 151.387 362.574L141.258 368.772C139.868 361.028 140.174 353.075 142.156 345.461C144.138 337.847 147.747 330.752 152.736 324.667C155.569 321.28 158.817 318.264 162.403 315.689C164.829 322.082 168.07 328.404 168.07 328.404Z" fill="#F2F2F2"/>
<path d="M495.706 40.792H172.071C170.476 40.7921 168.947 41.4247 167.818 42.551C166.69 43.6774 166.055 45.2052 166.053 46.799V199.487C166.055 201.081 166.689 202.61 167.817 203.738C168.946 204.865 170.475 205.499 172.071 205.501H495.706C497.3 205.498 498.828 204.863 499.954 203.735C501.081 202.608 501.715 201.08 501.716 199.487V46.799C501.714 45.2064 501.081 43.6794 499.954 42.5532C498.827 41.427 497.299 40.7936 495.706 40.792Z" fill="white"/>
<path d="M298.409 92.3215C294.877 92.3231 290.782 91.8382 288.284 92.9611C285.787 94.084 285.091 96.7229 285.087 98.3108V141.314C285.09 142.902 285.787 145.547 288.284 146.671C290.781 147.795 294.875 147.307 298.409 147.31H501.204V92.3215H298.409Z" fill="#F0F3F9"/>
<path opacity="0.5" d="M536.44 146.935H291.103C289.64 146.933 288.238 146.352 287.204 145.319C286.17 144.285 285.589 142.884 285.587 141.423V98.2955C285.589 96.8343 286.17 95.4333 287.204 94.4C288.238 93.3667 289.64 92.7854 291.102 92.7837H536.44C537.902 92.7854 539.304 93.3667 540.338 94.4C541.372 95.4334 541.954 96.8345 541.955 98.2958V141.423C541.954 142.884 541.372 144.285 540.338 145.319C539.304 146.352 537.902 146.933 536.44 146.935Z" fill="#F0F3F9" stroke="#616161"/>
<path d="M324.28 132.243C329.671 132.243 334.041 127.875 334.041 122.487C334.041 117.1 329.671 112.732 324.28 112.732C318.89 112.732 314.52 117.1 314.52 122.487C314.52 127.875 318.89 132.243 324.28 132.243Z" fill="#1D72F2"/>
<path d="M528.839 119.653H352.473C351.703 119.653 350.963 119.347 350.418 118.802C349.873 118.257 349.567 117.518 349.567 116.748C349.567 115.977 349.873 115.238 350.418 114.694C350.963 114.149 351.703 113.843 352.473 113.843H528.839C529.609 113.843 530.349 114.149 530.894 114.694C531.439 115.238 531.745 115.977 531.745 116.748C531.745 117.518 531.439 118.257 530.894 118.802C530.349 119.347 529.609 119.653 528.839 119.653Z" fill="#616161"/>
<path d="M461.853 131.132H352.474C351.703 131.132 350.963 130.826 350.418 130.281C349.873 129.736 349.567 128.997 349.567 128.227C349.567 127.456 349.873 126.717 350.418 126.173C350.963 125.628 351.703 125.322 352.474 125.322H461.853C462.624 125.322 463.364 125.628 463.909 126.173C464.454 126.717 464.76 127.456 464.76 128.227C464.76 128.997 464.454 129.736 463.909 130.281C463.364 130.826 462.624 131.132 461.853 131.132Z" fill="#616161"/>
<path d="M118.905 360.817L127.352 360.816L131.371 328.252H118.904L118.905 360.817Z" fill="#FFB6B6"/>
<path d="M116.75 358.06L119.128 358.06L128.411 354.287L133.386 358.059C136.197 358.059 138.894 359.176 140.883 361.163C142.871 363.15 143.988 365.844 143.988 368.655V368.999L116.751 369L116.75 358.06Z" fill="#2F2E41"/>
<path d="M42.5808 349.84L50.1413 353.606L68.2719 326.253L57.1142 320.695L42.5808 349.84Z" fill="#FFB6B6"/>
<path d="M41.8825 346.413L44.0105 347.473L54.0022 348.235L56.7712 353.829C59.2874 355.083 61.203 357.284 62.0954 359.949C62.9879 362.614 62.7847 365.524 61.5307 368.039L61.377 368.347L37 356.204L41.8825 346.413Z" fill="#2F2E41"/>
<path d="M122.648 212.921L68.9389 214.321L69.8729 240.461C69.8729 240.461 68.9389 247.463 70.807 249.33C72.6751 251.197 73.6092 251.197 72.6751 254.465C71.7411 257.732 69.3263 288.952 69.3263 288.952C69.3263 288.952 47.2827 327.908 48.2167 328.842C49.1508 329.775 50.0849 328.842 49.1508 331.176C48.2167 333.51 47.2827 332.576 48.2167 333.51C49.0441 334.401 49.8236 335.336 50.5519 336.31H65.7755C65.7755 336.31 66.6268 331.643 66.6268 331.176C66.6268 330.709 67.5609 327.908 67.5609 327.441C67.5609 326.975 94.1586 298.809 94.1586 298.809L99.763 252.131L113.307 297.876C113.307 297.876 113.307 338.019 114.241 338.953C115.175 339.886 115.175 339.42 114.708 341.287C114.241 343.154 112.373 342.687 113.774 344.087C115.175 345.488 115.642 343.154 115.175 345.488L114.708 347.822L132.651 348.022C132.651 348.022 134.519 344.087 133.585 342.687C132.651 341.287 132.707 341.669 133.847 339.377C134.986 337.086 135.453 336.619 134.986 336.152C134.519 335.685 134.519 333.203 134.519 333.203C134.519 333.203 127.785 241.395 127.785 239.994C127.75 239.274 127.883 238.555 128.173 237.894V235.994L126.384 229.258L122.648 212.921Z" fill="#2F2E41"/>
<path d="M279.496 169.78H201.191C199.596 169.782 198.066 170.416 196.938 171.544C195.81 172.671 195.176 174.2 195.174 175.795V205.502H285.506V175.795C285.505 174.201 284.871 172.673 283.745 171.546C282.618 170.419 281.09 169.784 279.496 169.78Z" fill="#F0F3F9"/>
<path opacity="0.5" d="M279.493 252.753H201.189C199.727 252.751 198.325 252.17 197.291 251.136C196.257 250.103 195.676 248.702 195.674 247.241V175.792C195.676 174.331 196.257 172.93 197.291 171.897C198.325 170.863 199.727 170.282 201.189 170.28H279.493C280.955 170.282 282.357 170.863 283.391 171.897C284.425 172.93 285.007 174.331 285.008 175.792V247.24C285.007 248.702 284.425 250.103 283.391 251.136C282.357 252.17 280.955 252.751 279.493 252.753Z" fill="#F0F3F9" stroke="#616161"/>
<path d="M224.259 203.647C229.65 203.647 234.02 199.279 234.02 193.892C234.02 188.504 229.65 184.136 224.259 184.136C218.869 184.136 214.499 188.504 214.499 193.892C214.499 199.279 218.869 203.647 224.259 203.647Z" fill="#616161"/>
<path d="M263.275 218.474H217.405C216.634 218.474 215.895 218.168 215.35 217.624C214.805 217.079 214.499 216.34 214.499 215.569C214.499 214.799 214.805 214.06 215.35 213.515C215.895 212.971 216.634 212.665 217.405 212.665H263.275C264.046 212.665 264.786 212.971 265.331 213.515C265.876 214.06 266.182 214.799 266.182 215.569C266.182 216.34 265.876 217.079 265.331 217.624C264.786 218.168 264.046 218.474 263.275 218.474Z" fill="#616161"/>
<path d="M239.54 229.952H217.405C216.635 229.952 215.895 229.646 215.35 229.101C214.805 228.557 214.499 227.818 214.499 227.047C214.499 226.277 214.805 225.538 215.35 224.993C215.895 224.448 216.635 224.142 217.405 224.142H239.54C240.311 224.142 241.05 224.448 241.595 224.993C242.141 225.538 242.447 226.277 242.447 227.047C242.447 227.818 242.141 228.557 241.595 229.101C241.05 229.646 240.311 229.952 239.54 229.952Z" fill="#616161"/>
<path d="M199.556 274.223C195.48 274.223 191.495 273.014 188.106 270.751C184.717 268.488 182.075 265.271 180.516 261.507C178.956 257.743 178.548 253.601 179.343 249.606C180.138 245.61 182.101 241.94 184.983 239.059C187.865 236.178 191.538 234.216 195.535 233.422C199.533 232.627 203.677 233.035 207.443 234.594C211.209 236.153 214.427 238.793 216.692 242.18C218.957 245.568 220.165 249.55 220.165 253.624C220.165 259.087 217.994 264.326 214.129 268.189C210.264 272.052 205.022 274.223 199.556 274.223Z" fill="#F0F3F9"/>
<path d="M207.688 251.592H201.589V245.496C201.589 244.957 201.375 244.441 200.994 244.059C200.612 243.678 200.095 243.464 199.556 243.464C199.017 243.464 198.5 243.678 198.118 244.059C197.737 244.441 197.523 244.957 197.523 245.496V251.592H191.424C191.157 251.591 190.892 251.644 190.645 251.746C190.398 251.847 190.173 251.997 189.984 252.186C189.795 252.374 189.645 252.599 189.542 252.845C189.44 253.092 189.387 253.357 189.387 253.624C189.387 253.891 189.44 254.156 189.542 254.402C189.645 254.649 189.795 254.873 189.984 255.062C190.173 255.251 190.398 255.4 190.645 255.502C190.892 255.604 191.157 255.656 191.424 255.656H197.523V261.751C197.523 262.29 197.737 262.807 198.118 263.188C198.5 263.569 199.017 263.783 199.556 263.783C200.095 263.783 200.612 263.569 200.994 263.188C201.375 262.807 201.589 262.29 201.589 261.751V255.656H207.688C208.227 255.656 208.744 255.442 209.125 255.061C209.507 254.68 209.721 254.163 209.721 253.624C209.721 253.085 209.507 252.568 209.125 252.187C208.744 251.806 208.227 251.592 207.688 251.592Z" fill="#616161"/>
<path d="M250.504 124.358H172.2C170.605 124.356 169.076 123.722 167.948 122.595C166.821 121.468 166.186 119.94 166.185 118.346V46.8968C166.186 45.303 166.821 43.7749 167.948 42.6479C169.076 41.5209 170.605 40.887 172.2 40.8853H250.504C252.099 40.887 253.628 41.5209 254.755 42.6479C255.883 43.7749 256.517 45.303 256.519 46.8968V118.346C256.517 119.94 255.883 121.468 254.755 122.595C253.628 123.722 252.099 124.356 250.504 124.358Z" fill="#F0F3F9"/>
<path d="M195.271 80.7144C200.661 80.7144 205.031 76.3467 205.031 70.959C205.031 65.5712 200.661 61.2036 195.271 61.2036C189.88 61.2036 185.51 65.5712 185.51 70.959C185.51 76.3467 189.88 80.7144 195.271 80.7144Z" fill="#F0F3F9"/>
<path d="M234.287 92.5614H188.417C187.646 92.5614 186.907 92.2553 186.362 91.7105C185.817 91.1657 185.51 90.4269 185.51 89.6564C185.51 88.886 185.817 88.1471 186.362 87.6023C186.907 87.0575 187.646 86.7515 188.417 86.7515H234.287C235.058 86.7515 235.797 87.0575 236.342 87.6023C236.887 88.1471 237.194 88.886 237.194 89.6564C237.194 90.4269 236.887 91.1657 236.342 91.7105C235.797 92.2553 235.058 92.5614 234.287 92.5614Z" fill="#F0F3F9"/>
<path d="M210.552 104.04H188.417C187.646 104.04 186.907 103.734 186.362 103.189C185.816 102.644 185.51 101.906 185.51 101.135C185.51 100.365 185.816 99.6257 186.362 99.0809C186.907 98.536 187.646 98.23 188.417 98.23H210.552C211.322 98.23 212.062 98.536 212.607 99.0809C213.152 99.6257 213.458 100.365 213.458 101.135C213.458 101.906 213.152 102.644 212.607 103.189C212.062 103.734 211.322 104.04 210.552 104.04Z" fill="#F0F3F9"/>
<path opacity="0.5" d="M250.504 123.986H172.2C170.738 123.984 169.336 123.403 168.302 122.37C167.268 121.336 166.687 119.935 166.685 118.474V47.0255C166.687 45.5643 167.268 44.1633 168.302 43.13C169.336 42.0967 170.738 41.5154 172.2 41.5137H250.504C251.966 41.5154 253.368 42.0967 254.402 43.13C255.436 44.1634 256.018 45.5644 256.019 47.0258V118.474C256.018 119.935 255.436 121.336 254.402 122.37C253.368 123.403 251.966 123.984 250.504 123.986Z" fill="#F0F3F9" stroke="#616161"/>
<path d="M195.271 80.7144C200.661 80.7144 205.031 76.3467 205.031 70.959C205.031 65.5712 200.661 61.2036 195.271 61.2036C189.88 61.2036 185.51 65.5712 185.51 70.959C185.51 76.3467 189.88 80.7144 195.271 80.7144Z" fill="#616161"/>
<path d="M234.287 92.5614H188.417C187.646 92.5614 186.907 92.2553 186.362 91.7105C185.817 91.1657 185.51 90.4269 185.51 89.6564C185.51 88.886 185.817 88.1471 186.362 87.6023C186.907 87.0575 187.646 86.7515 188.417 86.7515H234.287C235.058 86.7515 235.797 87.0575 236.342 87.6023C236.887 88.1471 237.194 88.886 237.194 89.6564C237.194 90.4269 236.887 91.1657 236.342 91.7105C235.797 92.2553 235.058 92.5614 234.287 92.5614Z" fill="#616161"/>
<path d="M210.552 104.04H188.417C187.646 104.04 186.907 103.734 186.362 103.189C185.816 102.644 185.51 101.906 185.51 101.135C185.51 100.365 185.816 99.6257 186.362 99.0809C186.907 98.536 187.646 98.23 188.417 98.23H210.552C211.322 98.23 212.062 98.536 212.607 99.0809C213.152 99.6257 213.458 100.365 213.458 101.135C213.458 101.906 213.152 102.644 212.607 103.189C212.062 103.734 211.322 104.04 210.552 104.04Z" fill="#616161"/>
<path d="M173.815 56.3022C182.464 56.3022 189.475 49.2949 189.475 40.6511C189.475 32.0072 182.464 25 173.815 25C165.167 25 158.156 32.0072 158.156 40.6511C158.156 49.2949 165.167 56.3022 173.815 56.3022Z" fill="#E84531"/>
<path d="M170.469 82.1073C171.112 83.9063 171.023 85.8861 170.22 87.6198C169.416 89.3535 167.963 90.7022 166.174 91.3751C165.779 91.5229 165.37 91.6353 164.955 91.7111L160.819 117.021L151.118 108.068L156.532 85.406C156.332 83.4964 156.891 81.5847 158.09 80.0841C159.289 78.5836 161.03 77.6148 162.938 77.3871C164.542 77.2033 166.162 77.5704 167.531 78.4281C168.899 79.2859 169.935 80.5833 170.469 82.1073Z" fill="#FFB6B6"/>
<path d="M98.8716 139.456C98.8716 139.456 106.401 129.512 133.724 129.785L149.233 124.153L152.777 91.6807L165.182 94.6327L163.41 134.78L136.828 150.131L101.975 157.216L98.8716 139.456Z" fill="#2C2C2C"/>
<path d="M94.8711 118.741C103.827 118.741 111.088 111.484 111.088 102.533C111.088 93.5814 103.827 86.3247 94.8711 86.3247C85.9148 86.3247 78.6543 93.5814 78.6543 102.533C78.6543 111.484 85.9148 118.741 94.8711 118.741Z" fill="#FFB6B6"/>
<path d="M67.4239 225.428C67.3951 225.428 67.3665 225.424 67.3388 225.416C67.0394 225.333 66.8029 225.267 67.8834 215.929L69.0495 208.548L67.9111 202.031L65.9961 200.117L69.0738 197.042L71.6564 189.709L67.1877 183.091L62.0607 156.025C61.1792 151.354 61.8642 146.524 64.0093 142.282C66.1544 138.04 69.6397 134.624 73.925 132.564L79.859 130.831L82.018 126.874C82.6243 125.763 83.517 124.834 84.6036 124.183C85.6901 123.533 86.9309 123.185 88.1973 123.176L99.0639 123.094C100.16 123.086 101.244 123.332 102.229 123.812C103.214 124.293 104.075 124.995 104.744 125.863L108.535 130.789L124.256 136.126L121.649 192.263C122.063 192.609 122.401 193.037 122.641 193.521C122.88 194.004 123.017 194.532 123.042 195.071C123.068 195.611 122.981 196.149 122.787 196.653C122.593 197.156 122.297 197.614 121.917 197.998C121.753 198.163 121.624 198.297 121.543 198.385C121.278 198.762 121.776 201.571 122.39 203.957L123.177 207.61C122.925 207.79 122.712 208.021 122.553 208.288C122.394 208.555 122.292 208.851 122.254 209.159C122.216 209.467 122.242 209.78 122.33 210.078C122.419 210.375 122.568 210.651 122.769 210.888L123.773 212.073C123.971 213.56 123.572 215.064 122.662 216.256C121.753 217.449 120.407 218.232 118.92 218.434C104.553 220.389 67.499 225.428 67.4239 225.428Z" fill="#2C2C2C"/>
<path d="M90.7224 117.947C90.6531 117.795 90.584 117.642 90.5151 117.488C90.5417 117.489 90.568 117.493 90.5945 117.494L90.7224 117.947Z" fill="#2F2E41"/>
<path d="M78.2036 87.0624C78.9736 86.3363 79.9744 85.9038 81.0311 85.8405C82.0797 85.8743 83.1431 86.821 82.9259 87.8469C84.852 84.4383 87.9179 81.8167 91.5853 80.4422C95.2527 79.0677 99.2873 79.0283 102.981 80.3308C105.587 81.2498 108.143 83.0884 108.742 85.7851C108.8 86.4931 109.011 87.1801 109.361 87.7986C109.664 88.1292 110.057 88.3641 110.492 88.4742C110.927 88.5843 111.385 88.5649 111.809 88.4183L111.834 88.4107C111.979 88.3612 112.136 88.3564 112.284 88.3968C112.432 88.4372 112.564 88.521 112.664 88.6375C112.764 88.7539 112.826 88.8976 112.843 89.0499C112.86 89.2022 112.831 89.3561 112.76 89.4918L112.023 90.8664C112.952 91.0735 113.918 91.053 114.838 90.8066C114.991 90.7665 115.152 90.7747 115.3 90.83C115.448 90.8853 115.576 90.985 115.665 91.1154C115.754 91.2458 115.8 91.4006 115.798 91.5585C115.795 91.7164 115.744 91.8697 115.651 91.9973C114.426 93.6731 112.826 95.0399 110.978 95.9888C109.131 96.9378 107.088 97.4427 105.011 97.4635C102.065 97.4455 99.0878 96.4305 96.2202 97.1078C95.1108 97.3698 94.0742 97.8767 93.1864 98.5913C92.2986 99.3059 91.5822 100.21 91.0896 101.238C90.5971 102.265 90.3409 103.39 90.34 104.529C90.3391 105.668 90.5933 106.793 91.0842 107.822C90.2032 106.859 88.5003 107.087 87.5991 108.031C87.1842 108.536 86.8774 109.122 86.6979 109.75C86.5184 110.379 86.4699 111.038 86.5555 111.686C86.7959 113.672 87.3857 115.599 88.2977 117.379C84.8133 117.272 81.4458 116.099 78.65 114.018C75.8542 111.936 73.7648 109.048 72.6641 105.742C71.5634 102.436 71.5044 98.8721 72.495 95.5315C73.4857 92.191 75.4782 89.2349 78.2036 87.0624Z" fill="#2F2E41"/>
<path d="M73.7413 248.674C72.1909 247.556 71.142 245.874 70.8209 243.991C70.4997 242.107 70.932 240.173 72.0245 238.606C72.2669 238.26 72.5394 237.936 72.8389 237.638L61.8958 214.442L74.9653 216.324L83.3534 238.062C84.6012 239.522 85.2241 241.414 85.0874 243.33C84.9507 245.245 84.0653 247.029 82.6227 248.297C81.4047 249.358 79.862 249.973 78.2481 250.041C76.6341 250.11 75.0448 249.627 73.7413 248.674Z" fill="#FFB6B6"/>
<path d="M70.4273 236.009L53.014 196.893L52.8396 166L58.3287 149.312C59.0733 147.048 60.2646 144.957 61.8319 143.161C63.3993 141.365 65.311 139.901 67.454 138.856C69.597 137.811 71.9279 137.206 74.3089 137.077C76.6898 136.947 79.0725 137.296 81.3162 138.103L81.4371 138.147L81.4878 138.265C81.6907 138.738 86.2944 150.12 72.6386 173.534L69.8904 189.555L79.5337 226.278L70.4273 236.009Z" fill="#2C2C2C"/>
</g>
<defs>
<filter id="filter0_f_919_2557" x="62" y="-80" width="335" height="335" filterUnits="userSpaceOnUse" color-interpolation-filters="sRGB">
<feFlood flood-opacity="0" result="BackgroundImageFix"/>
<feBlend mode="normal" in="SourceGraphic" in2="BackgroundImageFix" result="shape"/>
<feGaussianBlur stdDeviation="50" result="effect1_foregroundBlur_919_2557"/>
</filter>
<filter id="filter1_f_919_2557" x="-144" y="180" width="374" height="374" filterUnits="userSpaceOnUse" color-interpolation-filters="sRGB">
<feFlood flood-opacity="0" result="BackgroundImageFix"/>
<feBlend mode="normal" in="SourceGraphic" in2="BackgroundImageFix" result="shape"/>
<feGaussianBlur stdDeviation="50" result="effect1_foregroundBlur_919_2557"/>
</filter>
<clipPath id="clip0_919_2557">
<rect width="369" height="369" fill="white"/>
</clipPath>
</defs>
</svg>
